<?xml version="1.0" encoding="UTF-8"?>
<!DOCTYPE svg PUBLIC "-//W3C//DTD SVG 1.1//EN" "http://www.w3.org/Graphics/SVG/1.1/DTD/svg11.dtd">
<svg xmlns="http://www.w3.org/2000/svg" version="1.1" width="895px" height="1121px" style="shape-rendering:geometricPrecision; text-rendering:geometricPrecision; image-rendering:optimizeQuality; fill-rule:evenodd; clip-rule:evenodd" xmlns:xlink="http://www.w3.org/1999/xlink">
<g><path style="opacity:1" fill="#5d877c" d="M 543.5,-0.5 C 545.5,-0.5 547.5,-0.5 549.5,-0.5C 550.919,0.451145 552.585,0.784479 554.5,0.5C 553.538,7.41215 553.205,14.4122 553.5,21.5C 549.5,18.8333 545.5,16.1667 541.5,13.5C 541.5,9.5 541.5,5.5 541.5,1.5C 540.167,1.5 538.833,1.5 537.5,1.5C 539.5,0.833333 541.5,0.166667 543.5,-0.5 Z"/></g>
<g><path style="opacity:1" fill="#33534a" d="M 537.5,1.5 C 538.833,1.5 540.167,1.5 541.5,1.5C 541.5,5.5 541.5,9.5 541.5,13.5C 537.861,11.3448 534.194,9.17816 530.5,7C 528.803,6.61553 527.137,6.78219 525.5,7.5C 528.914,4.45979 532.914,2.45979 537.5,1.5 Z"/></g>
<g><path style="opacity:1" fill="#76a89a" d="M 554.5,0.5 C 557.167,1.5 559.833,2.5 562.5,3.5C 562.5,11.8333 562.5,20.1667 562.5,28.5C 559.642,25.9138 556.642,23.5805 553.5,21.5C 553.205,14.4122 553.538,7.41215 554.5,0.5 Z"/></g>
<g><path style="opacity:1" fill="#060606" d="M 541.5,13.5 C 545.5,16.1667 549.5,18.8333 553.5,21.5C 556.642,23.5805 559.642,25.9138 562.5,28.5C 567.461,32.1256 572.128,36.1256 576.5,40.5C 579.027,42.6054 581.36,44.9387 583.5,47.5C 589.233,53.2282 594.567,59.2282 599.5,65.5C 604.647,71.6451 608.98,78.3118 612.5,85.5C 606.651,92.8506 600.985,100.351 595.5,108C 598.651,113.156 601.818,118.323 605,123.5C 605.755,126.303 605.422,128.97 604,131.5C 593.167,146.333 580.333,159.167 565.5,170C 561.954,171.793 558.287,173.293 554.5,174.5C 553.508,178.783 553.174,183.116 553.5,187.5C 554.536,206.585 553.703,225.585 551,244.5C 537.676,222.181 527.343,198.514 520,173.5C 519.333,169.833 519.333,166.167 520,162.5C 522.781,154.271 526.115,146.271 530,138.5C 539.666,121.831 549.832,105.497 560.5,89.5C 553.112,81.1106 545.112,73.4439 536.5,66.5C 524.009,55.3377 510.676,45.3377 496.5,36.5C 495.503,36.5299 494.836,36.0299 494.5,35C 495.044,33.415 495.711,31.915 496.5,30.5C 497.167,30.5 497.833,30.5 498.5,30.5C 522.705,45.7257 544.871,63.7257 565,84.5C 567.062,82.4948 568.062,80.1615 568,77.5C 548.339,58.3241 526.839,41.6575 503.5,27.5C 503.167,26.8333 502.833,26.1667 502.5,25.5C 503.167,24.1667 504.167,23.1667 505.5,22.5C 506.609,22.4431 507.609,22.1098 508.5,21.5C 522.549,30.5268 535.882,40.5268 548.5,51.5C 556.474,58.1864 564.141,65.3531 571.5,73C 572.332,73.6877 572.998,73.521 573.5,72.5C 574.833,71.3801 575.333,70.0468 575,68.5C 567.891,60.5506 560.058,53.5506 551.5,47.5C 539.37,36.709 526.37,27.0423 512.5,18.5C 512.557,17.391 512.89,16.391 513.5,15.5C 517.148,12.3401 521.148,9.67347 525.5,7.5C 527.137,6.78219 528.803,6.61553 530.5,7C 534.194,9.17816 537.861,11.3448 541.5,13.5 Z"/></g>
<g><path style="opacity:1" fill="#8ac0b3" d="M 562.5,3.5 C 568.566,6.19193 573.9,9.8586 578.5,14.5C 577.833,23.1667 577.167,31.8333 576.5,40.5C 572.128,36.1256 567.461,32.1256 562.5,28.5C 562.5,20.1667 562.5,11.8333 562.5,3.5 Z"/></g>
<g><path style="opacity:1" fill="#060606" d="M 436.5,25.5 C 434.399,31.1602 430.733,35.6602 425.5,39C 420.438,41.9112 415.105,44.2445 409.5,46C 390.538,47.2544 371.538,47.9211 352.5,48C 306.169,53.5752 269.669,75.4085 243,113.5C 215.854,154.257 198.521,198.924 191,247.5C 189.136,250.207 186.636,251.041 183.5,250C 180.3,245.106 177.467,239.939 175,234.5C 172.666,231 169.832,228 166.5,225.5C 168.107,191.619 176.607,159.619 192,129.5C 197.573,120.619 203.073,111.786 208.5,103C 205.325,95.2624 205.991,87.929 210.5,81C 212.167,80 213.833,79 215.5,78C 222.492,77.5004 229.492,77.3337 236.5,77.5C 241.105,74.5643 245.105,70.8976 248.5,66.5C 249.167,65.1667 250.167,64.1667 251.5,63.5C 254.089,62.5806 256.089,60.914 257.5,58.5C 304.075,17.2736 357.742,4.10694 418.5,19C 424.643,20.88 430.643,23.0467 436.5,25.5 Z"/></g>
<g><path style="opacity:1" fill="#76a398" d="M 578.5,14.5 C 581.447,15.7805 583.781,17.7805 585.5,20.5C 584.833,29.5 584.167,38.5 583.5,47.5C 581.36,44.9387 579.027,42.6054 576.5,40.5C 577.167,31.8333 577.833,23.1667 578.5,14.5 Z"/></g>
<g><path style="opacity:1" fill="#e1e2e2" d="M 512.5,18.5 C 526.37,27.0423 539.37,36.709 551.5,47.5C 551.262,49.4044 550.262,50.7377 548.5,51.5C 535.882,40.5268 522.549,30.5268 508.5,21.5C 509.436,20.0256 510.77,19.0256 512.5,18.5 Z"/></g>
<g><path style="opacity:1" fill="#4c4e4e" d="M 513.5,15.5 C 512.89,16.391 512.557,17.391 512.5,18.5C 510.77,19.0256 509.436,20.0256 508.5,21.5C 507.609,22.1098 506.609,22.4431 505.5,22.5C 507.569,19.4275 510.236,17.0941 513.5,15.5 Z"/></g>
<g><path style="opacity:1" fill="#fbfbfb" d="M 436.5,25.5 C 453.022,31.7589 468.355,40.0922 482.5,50.5C 486.309,47.8579 489.976,45.0246 493.5,42C 495.607,40.7365 496.607,38.9032 496.5,36.5C 510.676,45.3377 524.009,55.3377 536.5,66.5C 522.085,87.6491 508.918,109.649 497,132.5C 490.686,144.957 486.852,158.124 485.5,172C 485.457,176.662 486.291,181.162 488,185.5C 503.251,220.012 521.584,252.679 543,283.5C 549.535,270.29 558.368,258.79 569.5,249C 610.861,215.797 653.194,183.963 696.5,153.5C 703.194,159.527 709.527,165.86 715.5,172.5C 710.167,178.5 704.5,184.167 698.5,189.5C 693.5,193.833 688.833,198.5 684.5,203.5C 679.895,206.436 675.895,210.102 672.5,214.5C 666.197,219.468 660.197,224.802 654.5,230.5C 646.905,235.758 639.905,241.758 633.5,248.5C 623.46,256.844 613.46,265.177 603.5,273.5C 594.428,280.031 585.761,287.031 577.5,294.5C 570.855,299.15 564.522,304.15 558.5,309.5C 552.222,313.113 546.888,317.78 542.5,323.5C 538.961,328.584 536.461,334.251 535,340.5C 534.063,354.196 533.063,367.863 532,381.5C 526.519,387.657 519.686,391.324 511.5,392.5C 497.978,387.189 483.978,383.689 469.5,382C 453.199,380.317 436.866,379.15 420.5,378.5C 422.357,371.427 424.524,364.427 427,357.5C 427.667,353.833 427.667,350.167 427,346.5C 392.662,291.834 380.662,232.501 391,168.5C 402.435,144.602 416.602,122.602 433.5,102.5C 437.876,99.1256 441.542,95.1256 444.5,90.5C 444.5,89.1667 444.5,87.8333 444.5,86.5C 423.022,77.8716 400.689,73.8716 377.5,74.5C 371.143,74.4763 364.81,74.8096 358.5,75.5C 349.72,77.0736 341.053,79.0736 332.5,81.5C 324.544,84.0455 316.877,87.3788 309.5,91.5C 301.972,95.7638 294.972,100.764 288.5,106.5C 284.833,109.5 281.5,112.833 278.5,116.5C 273.79,121.877 269.457,127.543 265.5,133.5C 257.237,144.134 250.571,155.801 245.5,168.5C 242.653,173.862 240.653,179.529 239.5,185.5C 235.77,193.395 233.103,201.729 231.5,210.5C 229.175,221.094 227.175,231.761 225.5,242.5C 222.675,259.413 222.009,276.413 223.5,293.5C 224.739,293.942 225.739,294.609 226.5,295.5C 225.167,297.5 223.833,299.5 222.5,301.5C 220.013,302.323 217.679,303.323 215.5,304.5C 205.691,306.071 197.691,310.738 191.5,318.5C 188.975,322.217 186.975,326.217 185.5,330.5C 184.596,331.209 184.263,332.209 184.5,333.5C 176.767,338.694 169.433,344.361 162.5,350.5C 156.138,354.346 150.138,358.679 144.5,363.5C 139.431,366.695 134.765,370.362 130.5,374.5C 123.951,378.934 117.617,383.601 111.5,388.5C 107.833,391.167 104.167,393.833 100.5,396.5C 98.1792,393.204 95.8458,389.871 93.5,386.5C 96.4729,384.194 99.1395,381.527 101.5,378.5C 105.12,376.547 108.12,373.881 110.5,370.5C 116.538,365.463 121.871,359.797 126.5,353.5C 129.392,350.729 132.058,347.729 134.5,344.5C 137.975,340.896 140.975,336.896 143.5,332.5C 146.399,329.048 149.066,325.382 151.5,321.5C 153.432,318.634 155.099,315.634 156.5,312.5C 158.153,309.869 159.819,307.203 161.5,304.5C 163.391,301.386 164.724,298.052 165.5,294.5C 167.537,291.416 169.203,288.083 170.5,284.5C 173.945,274.387 176.612,264.053 178.5,253.5C 178.182,252.353 177.516,251.519 176.5,251C 172.628,250.096 168.961,248.93 165.5,247.5C 165.317,240.132 165.65,232.799 166.5,225.5C 169.832,228 172.666,231 175,234.5C 177.467,239.939 180.3,245.106 183.5,250C 186.636,251.041 189.136,250.207 191,247.5C 198.521,198.924 215.854,154.257 243,113.5C 269.669,75.4085 306.169,53.5752 352.5,48C 371.538,47.9211 390.538,47.2544 409.5,46C 415.105,44.2445 420.438,41.9112 425.5,39C 430.733,35.6602 434.399,31.1602 436.5,25.5 Z"/></g>
<g><path style="opacity:1" fill="#585b5a" d="M 502.5,25.5 C 502.833,26.1667 503.167,26.8333 503.5,27.5C 501.589,28.075 499.922,29.075 498.5,30.5C 497.833,30.5 497.167,30.5 496.5,30.5C 497.891,28.1097 499.891,26.4431 502.5,25.5 Z"/></g>
<g><path style="opacity:1" fill="#d7d9d8" d="M 503.5,27.5 C 526.839,41.6575 548.339,58.3241 568,77.5C 568.062,80.1615 567.062,82.4948 565,84.5C 544.871,63.7257 522.705,45.7257 498.5,30.5C 499.922,29.075 501.589,28.075 503.5,27.5 Z"/></g>
<g><path style="opacity:1" fill="#5a7c74" d="M 585.5,20.5 C 592.273,25.9341 597.939,32.2674 602.5,39.5C 601.883,39.3893 601.383,39.056 601,38.5C 600.83,47.676 600.33,56.676 599.5,65.5C 594.567,59.2282 589.233,53.2282 583.5,47.5C 584.167,38.5 584.833,29.5 585.5,20.5 Z"/></g>
<g><path style="opacity:1" fill="#060606" d="M 500.5,45.5 C 503.778,46.8089 506.778,48.6422 509.5,51C 511.007,51.8373 511.507,53.0039 511,54.5C 492.333,75.8333 473.667,97.1667 455,118.5C 446.281,129.552 437.947,140.886 430,152.5C 426.885,157.844 424.552,163.511 423,169.5C 422.765,178.537 422.098,187.537 421,196.5C 416.181,199.865 411.014,200.365 405.5,198C 404.667,197.167 403.833,196.333 403,195.5C 402.333,186.833 402.333,178.167 403,169.5C 404.163,164.172 406.163,159.172 409,154.5C 419.908,141.014 430.575,127.348 441,113.5C 461.042,90.9617 480.875,68.2951 500.5,45.5 Z"/></g>
<g><path style="opacity:1" fill="#c7c7c6" d="M 551.5,47.5 C 560.058,53.5506 567.891,60.5506 575,68.5C 575.333,70.0468 574.833,71.3801 573.5,72.5C 572.998,73.521 572.332,73.6877 571.5,73C 564.141,65.3531 556.474,58.1864 548.5,51.5C 550.262,50.7377 551.262,49.4044 551.5,47.5 Z"/></g>
<g><path style="opacity:1" fill="#545757" d="M 257.5,58.5 C 256.089,60.914 254.089,62.5806 251.5,63.5C 252.911,61.086 254.911,59.4194 257.5,58.5 Z"/></g>
<g><path style="opacity:1" fill="#354441" d="M 602.5,39.5 C 613.227,50.6579 617.393,63.9912 615,79.5C 614.76,81.8516 613.927,83.8516 612.5,85.5C 608.98,78.3118 604.647,71.6451 599.5,65.5C 600.33,56.676 600.83,47.676 601,38.5C 601.383,39.056 601.883,39.3893 602.5,39.5 Z"/></g>
<g><path style="opacity:1" fill="#d6d6d6" d="M 536.5,66.5 C 545.112,73.4439 553.112,81.1106 560.5,89.5C 549.832,105.497 539.666,121.831 530,138.5C 526.115,146.271 522.781,154.271 520,162.5C 519.333,166.167 519.333,169.833 520,173.5C 527.343,198.514 537.676,222.181 551,244.5C 553.703,225.585 554.536,206.585 553.5,187.5C 554.166,191.684 554.833,196.018 555.5,200.5C 593.122,176.2 630.456,151.533 667.5,126.5C 677.468,135.133 687.134,144.133 696.5,153.5C 653.194,183.963 610.861,215.797 569.5,249C 558.368,258.79 549.535,270.29 543,283.5C 521.584,252.679 503.251,220.012 488,185.5C 486.291,181.162 485.457,176.662 485.5,172C 486.852,158.124 490.686,144.957 497,132.5C 508.918,109.649 522.085,87.6491 536.5,66.5 Z"/></g>
<g><path style="opacity:1" fill="#4b4c4c" d="M 248.5,66.5 C 245.105,70.8976 241.105,74.5643 236.5,77.5C 239.895,73.1024 243.895,69.4357 248.5,66.5 Z"/></g>
<g><path style="opacity:1" fill="#324541" d="M 377.5,74.5 C 400.689,73.8716 423.022,77.8716 444.5,86.5C 444.5,87.8333 444.5,89.1667 444.5,90.5C 427.492,84.8931 410.158,83.5598 392.5,86.5C 391.127,86.6567 389.793,86.49 388.5,86C 384.63,82.2977 380.963,78.4643 377.5,74.5 Z"/></g>
<g><path style="opacity:1" fill="#3f5852" d="M 377.5,74.5 C 380.963,78.4643 384.63,82.2977 388.5,86C 389.793,86.49 391.127,86.6567 392.5,86.5C 386.687,88.4561 380.687,90.1227 374.5,91.5C 368.706,86.8768 363.039,82.0435 357.5,77C 358.056,76.6174 358.389,76.1174 358.5,75.5C 364.81,74.8096 371.143,74.4763 377.5,74.5 Z"/></g>
<g><path style="opacity:1" fill="#4b6861" d="M 358.5,75.5 C 358.389,76.1174 358.056,76.6174 357.5,77C 363.039,82.0435 368.706,86.8768 374.5,91.5C 367.232,95.134 359.899,98.8007 352.5,102.5C 345.137,96.1378 338.471,89.1378 332.5,81.5C 341.053,79.0736 349.72,77.0736 358.5,75.5 Z"/></g>
<g><path style="opacity:1" fill="#597c74" d="M 332.5,81.5 C 338.471,89.1378 345.137,96.1378 352.5,102.5C 345.993,106.586 339.66,110.92 333.5,115.5C 325.806,107.14 317.806,99.1396 309.5,91.5C 316.877,87.3788 324.544,84.0455 332.5,81.5 Z"/></g>
<g><path style="opacity:1" fill="#406a5d" d="M 444.5,90.5 C 441.542,95.1256 437.876,99.1256 433.5,102.5C 409.11,99.0773 386.11,103.577 364.5,116C 335.74,132.261 312.74,154.428 295.5,182.5C 292.397,177.948 289.064,173.614 285.5,169.5C 286.901,166.366 288.568,163.366 290.5,160.5C 294.579,154.692 298.913,149.025 303.5,143.5C 307.167,140.5 310.5,137.167 313.5,133.5C 319.894,127.101 326.561,121.101 333.5,115.5C 339.66,110.92 345.993,106.586 352.5,102.5C 359.899,98.8007 367.232,95.134 374.5,91.5C 380.687,90.1227 386.687,88.4561 392.5,86.5C 410.158,83.5598 427.492,84.8931 444.5,90.5 Z"/></g>
<g><path style="opacity:1" fill="#679086" d="M 309.5,91.5 C 317.806,99.1396 325.806,107.14 333.5,115.5C 326.561,121.101 319.894,127.101 313.5,133.5C 304.855,124.853 296.522,115.853 288.5,106.5C 294.972,100.764 301.972,95.7638 309.5,91.5 Z"/></g>
<g><path style="opacity:1" fill="#040505" d="M 433.5,102.5 C 416.602,122.602 402.435,144.602 391,168.5C 380.662,232.501 392.662,291.834 427,346.5C 427.667,350.167 427.667,353.833 427,357.5C 424.524,364.427 422.357,371.427 420.5,378.5C 436.866,379.15 453.199,380.317 469.5,382C 483.978,383.689 497.978,387.189 511.5,392.5C 517.125,395.561 522.958,398.228 529,400.5C 535.122,400.025 539.956,397.358 543.5,392.5C 548.583,387.231 552.75,381.231 556,374.5C 555.766,365.175 555.766,355.842 556,346.5C 557.41,342.764 558.91,339.098 560.5,335.5C 563.557,331.742 566.39,327.742 569,323.5C 572.651,321.267 576.151,318.934 579.5,316.5C 588.545,311.317 597.212,305.651 605.5,299.5C 614.816,293.86 624.149,288.194 633.5,282.5C 640.709,278.068 647.709,273.402 654.5,268.5C 660.969,265.098 667.303,261.431 673.5,257.5C 677.382,255.066 681.048,252.399 684.5,249.5C 689.407,247.261 694.074,244.594 698.5,241.5C 704.665,237.25 710.998,233.25 717.5,229.5C 726.472,223.677 735.472,217.844 744.5,212C 736.577,198.964 727.577,186.797 717.5,175.5C 717.068,174.29 716.401,173.29 715.5,172.5C 709.527,165.86 703.194,159.527 696.5,153.5C 687.134,144.133 677.468,135.133 667.5,126.5C 668.605,125.4 669.938,124.733 671.5,124.5C 681.874,132.694 691.874,141.361 701.5,150.5C 707.537,156.535 713.204,162.869 718.5,169.5C 721.5,172.833 724.5,176.167 727.5,179.5C 732.745,186.324 737.745,193.324 742.5,200.5C 744.177,203.855 746.344,206.855 749,209.5C 751.553,208.777 753.72,207.444 755.5,205.5C 751.724,199.591 747.724,193.925 743.5,188.5C 739.117,181.064 733.784,174.397 727.5,168.5C 727.262,166.596 726.262,165.262 724.5,164.5C 719.203,157.536 713.203,151.202 706.5,145.5C 697.468,136.466 688.134,127.799 678.5,119.5C 678.833,118.5 679.5,117.833 680.5,117.5C 690.442,125.437 700.109,133.77 709.5,142.5C 715.167,148.5 720.833,154.5 726.5,160.5C 728.5,162.833 730.5,165.167 732.5,167.5C 736.167,172.167 739.833,176.833 743.5,181.5C 746.167,185.167 748.833,188.833 751.5,192.5C 753.495,196.484 755.995,200.151 759,203.5C 759.708,202.619 760.542,201.953 761.5,201.5C 762.458,201.047 763.292,200.381 764,199.5C 765.176,201.196 766.343,202.862 767.5,204.5C 767.665,207.518 767.498,210.518 767,213.5C 766.727,215.329 765.893,216.829 764.5,218C 709.775,256.39 654.775,294.39 599.5,332C 623.235,336.345 646.901,341.011 670.5,346C 692.92,348.814 713.92,344.48 733.5,333C 743.66,325.753 753.994,318.753 764.5,312C 770.063,311.564 775.563,312.064 781,313.5C 787.028,310.733 793.195,308.4 799.5,306.5C 818.696,310.261 833.696,320.261 844.5,336.5C 844.427,338.027 845.094,339.027 846.5,339.5C 858.223,355.513 863.389,373.513 862,393.5C 838.62,412.77 814.787,431.437 790.5,449.5C 821.221,514.581 823.388,580.581 797,647.5C 786.481,671.229 772.481,692.562 755,711.5C 754.333,723.833 754.333,736.167 755,748.5C 756.766,780.488 758.266,812.488 759.5,844.5C 759.906,895.498 752.072,945.164 736,993.5C 724.165,1025.32 705.332,1052.15 679.5,1074C 657.958,1089.77 634.624,1102.44 609.5,1112C 602.19,1114.86 595.69,1113.69 590,1108.5C 589.209,1107.26 588.709,1105.92 588.5,1104.5C 588.33,1103.18 588.663,1102.01 589.5,1101C 629.575,1083.92 664.408,1059.42 694,1027.5C 712.681,1004.79 724.347,978.793 729,949.5C 737.245,908.9 742.579,867.9 745,826.5C 748.541,749.15 748.207,671.817 744,594.5C 743.096,567.92 735.429,543.587 721,521.5C 717.631,517.963 714.131,514.629 710.5,511.5C 696.133,499.152 679.467,493.319 660.5,494C 677.298,520.096 690.464,547.929 700,577.5C 702.65,589.05 704.65,600.717 706,612.5C 708.714,673.894 707.714,735.227 703,796.5C 698.849,837.775 687.849,877.108 670,914.5C 650.627,956.937 627.96,997.271 602,1035.5C 598.712,1044.99 596.212,1054.65 594.5,1064.5C 591.372,1072.81 589.372,1081.47 588.5,1090.5C 587.209,1090.26 586.209,1090.6 585.5,1091.5C 584.325,1091.28 583.325,1091.61 582.5,1092.5C 577.748,1103.24 571.082,1112.58 562.5,1120.5C 551.167,1120.5 539.833,1120.5 528.5,1120.5C 517.244,1119.17 505.91,1117.51 494.5,1115.5C 495.167,1114.83 495.833,1114.17 496.5,1113.5C 516.98,1113.6 536.647,1109.77 555.5,1102C 575.667,1089.34 585.334,1071 584.5,1047C 584.425,1039.8 583.925,1032.64 583,1025.5C 576.718,998.162 570.551,970.829 564.5,943.5C 562.686,931.969 563.352,920.636 566.5,909.5C 568.768,901.028 571.435,892.695 574.5,884.5C 577.17,876.822 579.837,869.155 582.5,861.5C 585.484,854.906 588.484,848.239 591.5,841.5C 594.971,832.42 598.638,823.42 602.5,814.5C 607.723,803.389 612.39,792.055 616.5,780.5C 618.731,777.164 620.397,773.497 621.5,769.5C 625.68,760.458 629.346,751.124 632.5,741.5C 635.02,736.443 637.02,731.109 638.5,725.5C 641.464,720.618 643.464,715.285 644.5,709.5C 646.601,706.203 647.935,702.537 648.5,698.5C 651.408,692.894 653.408,686.894 654.5,680.5C 656.776,674.415 658.609,668.082 660,661.5C 664.086,632.984 662.253,604.984 654.5,577.5C 653.407,571.098 651.407,565.098 648.5,559.5C 647.935,555.463 646.601,551.797 644.5,548.5C 643.537,545.256 642.204,542.256 640.5,539.5C 636.847,530.188 632.18,521.521 626.5,513.5C 624.165,507.486 620.831,502.152 616.5,497.5C 612.233,489.963 607.233,482.963 601.5,476.5C 598.199,470.538 593.866,465.538 588.5,461.5C 586.9,460.356 585.233,459.189 583.5,458C 578.166,457.433 572.833,456.933 567.5,456.5C 563.07,454.954 558.404,453.954 553.5,453.5C 544.758,451.481 536.092,449.148 527.5,446.5C 487.694,434.551 447.027,427.051 405.5,424C 392.66,423.173 379.993,423.34 367.5,424.5C 361.147,438.891 356.481,453.891 353.5,469.5C 352.215,472.589 351.549,475.922 351.5,479.5C 349.613,485.559 348.613,491.892 348.5,498.5C 347.116,503.944 346.45,509.611 346.5,515.5C 345.163,539.541 346.829,563.541 351.5,587.5C 351.315,588.584 350.982,589.584 350.5,590.5C 346.394,594.254 341.727,597.254 336.5,599.5C 335.399,598.402 334.066,598.235 332.5,599C 309.791,611.594 285.457,617.761 259.5,617.5C 240.833,617.5 222.167,617.5 203.5,617.5C 195.51,616.977 187.51,616.644 179.5,616.5C 170.713,614.738 161.713,614.238 152.5,615C 133.579,632.668 120.079,653.834 112,678.5C 109.055,693.089 108.721,707.756 111,722.5C 114.476,750.05 120.309,777.05 128.5,803.5C 129.435,807.969 130.768,812.303 132.5,816.5C 133.912,822.071 135.912,827.404 138.5,832.5C 139.264,835.018 140.264,837.351 141.5,839.5C 143.097,843.189 145.097,846.689 147.5,850C 146.552,850.483 145.552,850.649 144.5,850.5C 140.481,850.354 136.481,850.021 132.5,849.5C 118.512,823.717 108.346,796.384 102,767.5C 97.6917,745.983 94.3583,724.317 92,702.5C 82.9428,695.207 79.9428,685.873 83,674.5C 84.0259,671.761 85.5259,669.428 87.5,667.5C 88.9063,667.027 89.573,666.027 89.5,664.5C 93.9217,660.853 98.0884,656.853 102,652.5C 110.047,642.242 118.213,632.075 126.5,622C 85.0329,587.683 56.0329,544.85 39.5,493.5C 58.4576,498.734 74.4576,494.067 87.5,479.5C 95.1744,471.813 100.841,462.813 104.5,452.5C 107.944,440.718 108.944,428.718 107.5,416.5C 109.8,414.016 112.467,412.016 115.5,410.5C 124.315,430.377 123.315,449.711 112.5,468.5C 107.79,472.913 103.79,477.913 100.5,483.5C 92.3311,495.824 88.3311,509.49 88.5,524.5C 90.9906,552.475 105.324,571.308 131.5,581C 140.48,583.381 149.147,582.881 157.5,579.5C 166.163,576.84 173.496,572.173 179.5,565.5C 182.66,561.852 185.327,557.852 187.5,553.5C 191.939,546.183 194.606,538.183 195.5,529.5C 196.193,519.415 194.859,509.748 191.5,500.5C 183.302,476.959 166.969,463.292 142.5,459.5C 146.976,437.345 144.643,416.011 135.5,395.5C 137.833,393.5 140.167,391.5 142.5,389.5C 147.469,386.522 152.135,383.189 156.5,379.5C 163.718,374.398 170.718,369.064 177.5,363.5C 179.411,362.925 181.078,361.925 182.5,360.5C 183.167,360.833 183.833,361.167 184.5,361.5C 185.865,376.195 193.532,385.862 207.5,390.5C 208.897,403.103 212.897,414.769 219.5,425.5C 219.804,426.15 220.137,426.817 220.5,427.5C 219.067,430.333 218.4,433.333 218.5,436.5C 217.216,440.985 216.216,445.651 215.5,450.5C 214.01,454.942 213.01,459.609 212.5,464.5C 211.571,467.675 210.738,471.009 210,474.5C 209.617,475.056 209.117,475.389 208.5,475.5C 206.5,472.833 204.167,470.5 201.5,468.5C 195.654,467.183 189.654,467.183 183.5,468.5C 183.624,469.107 183.957,469.44 184.5,469.5C 192.572,478.974 198.572,489.641 202.5,501.5C 202.5,501.833 202.5,502.167 202.5,502.5C 202.611,503.117 202.944,503.617 203.5,504C 201.786,508.017 200.953,512.184 201,516.5C 204.473,517.935 207.973,519.268 211.5,520.5C 208.905,529.787 206.405,539.121 204,548.5C 201.674,554.487 198.174,559.654 193.5,564C 203.621,562.185 212.121,557.352 219,549.5C 222.145,531.192 222.312,512.859 219.5,494.5C 219.5,492.5 219.5,490.5 219.5,488.5C 221.616,483.051 223.282,477.384 224.5,471.5C 226.03,466.907 227.363,462.241 228.5,457.5C 229.847,452.815 231.18,448.148 232.5,443.5C 232.328,442.508 232.662,441.842 233.5,441.5C 252.702,451.371 270.036,448.704 285.5,433.5C 299.62,418.256 308.12,400.256 311,379.5C 316.688,352.655 312.355,327.655 298,304.5C 277.425,281.646 255.925,280.646 233.5,301.5C 229.732,302.787 226.065,302.787 222.5,301.5C 223.833,299.5 225.167,297.5 226.5,295.5C 232.129,288.458 238.129,281.624 244.5,275C 251.739,269.463 259.239,264.296 267,259.5C 271.673,231.975 281.173,206.308 295.5,182.5C 312.74,154.428 335.74,132.261 364.5,116C 386.11,103.577 409.11,99.0773 433.5,102.5 Z"/></g>
<g><path style="opacity:1" fill="#547f74" d="M 709.5,105.5 C 709.5,114.833 709.5,124.167 709.5,133.5C 705.537,130.871 701.871,127.871 698.5,124.5C 699.833,118.5 699.833,112.5 698.5,106.5C 701.939,104.393 705.605,104.059 709.5,105.5 Z"/></g>
<g><path style="opacity:1" fill="#3d5f56" d="M 698.5,106.5 C 699.833,112.5 699.833,118.5 698.5,124.5C 694.167,121.167 689.833,117.833 685.5,114.5C 688.797,110.213 693.131,107.546 698.5,106.5 Z"/></g>
<g><path style="opacity:1" fill="#76a79b" d="M 709.5,105.5 C 714.132,108.143 718.465,111.143 722.5,114.5C 721.506,124.319 721.173,134.319 721.5,144.5C 718.55,142.885 715.884,140.885 713.5,138.5C 712.167,136.833 710.833,135.167 709.5,133.5C 709.5,124.167 709.5,114.833 709.5,105.5 Z"/></g>
<g><path style="opacity:1" fill="#72a195" d="M 288.5,106.5 C 296.522,115.853 304.855,124.853 313.5,133.5C 310.5,137.167 307.167,140.5 303.5,143.5C 295.478,134.147 287.145,125.147 278.5,116.5C 281.5,112.833 284.833,109.5 288.5,106.5 Z"/></g>
<g><path style="opacity:1" fill="#c5c7c6" d="M 685.5,114.5 C 689.833,117.833 694.167,121.167 698.5,124.5C 701.871,127.871 705.537,130.871 709.5,133.5C 710.833,135.167 712.167,136.833 713.5,138.5C 712.167,139.833 710.833,141.167 709.5,142.5C 700.109,133.77 690.442,125.437 680.5,117.5C 681.899,116.11 683.566,115.11 685.5,114.5 Z"/></g>
<g><path style="opacity:1" fill="#f8f8f8" d="M 381.5,159.5 C 343.45,178.718 316.284,208.051 300,247.5C 297.471,253.421 295.137,259.421 293,265.5C 292.329,266.252 291.496,266.586 290.5,266.5C 286.63,265.574 282.797,264.574 279,263.5C 282.544,206.24 308.377,162.073 356.5,131C 372.163,121.336 389.163,116.169 407.5,115.5C 407.245,118.016 406.411,120.35 405,122.5C 396.548,134.45 388.714,146.783 381.5,159.5 Z"/></g>
<g><path style="opacity:1" fill="#8cc3b5" d="M 722.5,114.5 C 727.071,116.738 731.071,119.738 734.5,123.5C 733.833,138.167 733.167,152.833 732.5,167.5C 730.5,165.167 728.5,162.833 726.5,160.5C 728.886,159.627 730.886,158.127 732.5,156C 728.63,152.298 724.963,148.464 721.5,144.5C 721.173,134.319 721.506,124.319 722.5,114.5 Z"/></g>
<g><path style="opacity:1" fill="#c7c7c6" d="M 678.5,119.5 C 688.134,127.799 697.468,136.466 706.5,145.5C 703.833,146.167 702.167,147.833 701.5,150.5C 691.874,141.361 681.874,132.694 671.5,124.5C 673.296,122.1 675.63,120.433 678.5,119.5 Z"/></g>
<g><path style="opacity:1" fill="#7db1a4" d="M 278.5,116.5 C 287.145,125.147 295.478,134.147 303.5,143.5C 298.913,149.025 294.579,154.692 290.5,160.5C 282.478,151.147 274.145,142.147 265.5,133.5C 269.457,127.543 273.79,121.877 278.5,116.5 Z"/></g>
<g><path style="opacity:1" fill="#76a499" d="M 734.5,123.5 C 738.921,126.71 742.921,130.377 746.5,134.5C 744.838,149.973 743.838,165.64 743.5,181.5C 739.833,176.833 736.167,172.167 732.5,167.5C 733.167,152.833 733.833,138.167 734.5,123.5 Z"/></g>
<g><path style="opacity:1" fill="#61877e" d="M 746.5,134.5 C 748.804,137.141 751.138,139.808 753.5,142.5C 752.833,159.167 752.167,175.833 751.5,192.5C 748.833,188.833 746.167,185.167 743.5,181.5C 743.838,165.64 744.838,149.973 746.5,134.5 Z"/></g>
<g><path style="opacity:1" fill="#eff1f1" d="M 713.5,138.5 C 715.884,140.885 718.55,142.885 721.5,144.5C 724.963,148.464 728.63,152.298 732.5,156C 730.886,158.127 728.886,159.627 726.5,160.5C 720.833,154.5 715.167,148.5 709.5,142.5C 710.833,141.167 712.167,139.833 713.5,138.5 Z"/></g>
<g><path style="opacity:1" fill="#ebebeb" d="M 706.5,145.5 C 713.203,151.202 719.203,157.536 724.5,164.5C 723.089,166.914 721.089,168.581 718.5,169.5C 713.204,162.869 707.537,156.535 701.5,150.5C 702.167,147.833 703.833,146.167 706.5,145.5 Z"/></g>
<g><path style="opacity:1" fill="#4b6861" d="M 753.5,142.5 C 756.673,146.185 759.34,150.185 761.5,154.5C 760.177,170.069 760.177,185.735 761.5,201.5C 760.542,201.953 759.708,202.619 759,203.5C 755.995,200.151 753.495,196.484 751.5,192.5C 752.167,175.833 752.833,159.167 753.5,142.5 Z"/></g>
<g><path style="opacity:1" fill="#8cc5b6" d="M 265.5,133.5 C 274.145,142.147 282.478,151.147 290.5,160.5C 288.568,163.366 286.901,166.366 285.5,169.5C 280.423,176.645 276.089,184.311 272.5,192.5C 264.075,183.735 255.075,175.735 245.5,168.5C 250.571,155.801 257.237,144.134 265.5,133.5 Z"/></g>
<g><path style="opacity:1" fill="#d5d5d5" d="M 381.5,159.5 C 377.84,168.773 375.673,178.44 375,188.5C 371.09,230.874 377.923,271.374 395.5,310C 382.8,323.515 367.133,330.848 348.5,332C 344.179,332.499 339.846,332.666 335.5,332.5C 332.869,309.738 323.202,290.571 306.5,275C 301.517,271.344 296.184,268.511 290.5,266.5C 291.496,266.586 292.329,266.252 293,265.5C 295.137,259.421 297.471,253.421 300,247.5C 316.284,208.051 343.45,178.718 381.5,159.5 Z"/></g>
<g><path style="opacity:1" fill="#384a46" d="M 761.5,154.5 C 770.897,166.192 775.397,179.525 775,194.5C 773.695,198.797 771.195,202.131 767.5,204.5C 766.343,202.862 765.176,201.196 764,199.5C 763.292,200.381 762.458,201.047 761.5,201.5C 760.177,185.735 760.177,170.069 761.5,154.5 Z"/></g>
<g><path style="opacity:1" fill="#43695f" d="M 724.5,164.5 C 726.262,165.262 727.262,166.596 727.5,168.5C 727.5,172.167 727.5,175.833 727.5,179.5C 724.5,176.167 721.5,172.833 718.5,169.5C 721.089,168.581 723.089,166.914 724.5,164.5 Z"/></g>
<g><path style="opacity:1" fill="#76a89b" d="M 727.5,168.5 C 733.784,174.397 739.117,181.064 743.5,188.5C 743.817,192.702 743.483,196.702 742.5,200.5C 737.745,193.324 732.745,186.324 727.5,179.5C 727.5,175.833 727.5,172.167 727.5,168.5 Z"/></g>
<g><path style="opacity:1" fill="#81b7a9" d="M 245.5,168.5 C 255.075,175.735 264.075,183.735 272.5,192.5C 269.779,197.663 267.446,202.996 265.5,208.5C 263.068,207.25 260.734,205.75 258.5,204C 252.298,197.631 245.965,191.464 239.5,185.5C 240.653,179.529 242.653,173.862 245.5,168.5 Z"/></g>
<g><path style="opacity:1" fill="#405954" d="M 715.5,172.5 C 716.401,173.29 717.068,174.29 717.5,175.5C 716.176,193.402 716.176,211.402 717.5,229.5C 710.998,233.25 704.665,237.25 698.5,241.5C 698.5,224.167 698.5,206.833 698.5,189.5C 704.5,184.167 710.167,178.5 715.5,172.5 Z"/></g>
<g><path style="opacity:1" fill="#31423f" d="M 717.5,175.5 C 727.577,186.797 736.577,198.964 744.5,212C 735.472,217.844 726.472,223.677 717.5,229.5C 716.176,211.402 716.176,193.402 717.5,175.5 Z"/></g>
<g><path style="opacity:1" fill="#4f6d66" d="M 698.5,189.5 C 698.5,206.833 698.5,224.167 698.5,241.5C 694.074,244.594 689.407,247.261 684.5,249.5C 684.5,234.167 684.5,218.833 684.5,203.5C 688.833,198.5 693.5,193.833 698.5,189.5 Z"/></g>
<g><path style="opacity:1" fill="#4a645e" d="M 743.5,188.5 C 747.724,193.925 751.724,199.591 755.5,205.5C 753.72,207.444 751.553,208.777 749,209.5C 746.344,206.855 744.177,203.855 742.5,200.5C 743.483,196.702 743.817,192.702 743.5,188.5 Z"/></g>
<g><path style="opacity:1" fill="#70a396" d="M 239.5,185.5 C 245.965,191.464 252.298,197.631 258.5,204C 260.734,205.75 263.068,207.25 265.5,208.5C 262.043,216.655 259.043,224.988 256.5,233.5C 248.147,225.117 239.813,217.45 231.5,210.5C 233.103,201.729 235.77,193.395 239.5,185.5 Z"/></g>
<g><path style="opacity:1" fill="#477467" d="M 285.5,169.5 C 289.064,173.614 292.397,177.948 295.5,182.5C 281.173,206.308 271.673,231.975 267,259.5C 259.239,264.296 251.739,269.463 244.5,275C 238.129,281.624 232.129,288.458 226.5,295.5C 225.739,294.609 224.739,293.942 223.5,293.5C 222.009,276.413 222.675,259.413 225.5,242.5C 226.552,242.351 227.552,242.517 228.5,243C 235.031,249.865 241.864,256.365 249,262.5C 251.658,252.869 254.158,243.202 256.5,233.5C 259.043,224.988 262.043,216.655 265.5,208.5C 267.446,202.996 269.779,197.663 272.5,192.5C 276.089,184.311 280.423,176.645 285.5,169.5 Z"/></g>
<g><path style="opacity:1" fill="#5c7f77" d="M 684.5,203.5 C 684.5,218.833 684.5,234.167 684.5,249.5C 681.048,252.399 677.382,255.066 673.5,257.5C 672.518,243.245 672.184,228.912 672.5,214.5C 675.895,210.102 679.895,206.436 684.5,203.5 Z"/></g>
<g><path style="opacity:1" fill="#6a958a" d="M 672.5,214.5 C 672.184,228.912 672.518,243.245 673.5,257.5C 667.303,261.431 660.969,265.098 654.5,268.5C 654.5,255.833 654.5,243.167 654.5,230.5C 660.197,224.802 666.197,219.468 672.5,214.5 Z"/></g>
<g><path style="opacity:1" fill="#5f8d80" d="M 231.5,210.5 C 239.813,217.45 248.147,225.117 256.5,233.5C 254.158,243.202 251.658,252.869 249,262.5C 241.864,256.365 235.031,249.865 228.5,243C 227.552,242.517 226.552,242.351 225.5,242.5C 227.175,231.761 229.175,221.094 231.5,210.5 Z"/></g>
<g><path style="opacity:1" fill="#609c8a" d="M 99.5,237.5 C 94.1667,237.5 88.8333,237.5 83.5,237.5C 81.8008,237.34 80.1341,237.506 78.5,238C 85.2323,240.956 88.899,246.123 89.5,253.5C 89.6282,257.881 89.2949,262.215 88.5,266.5C 88.0074,268.806 87.6741,271.139 87.5,273.5C 85.5683,277.195 84.235,281.195 83.5,285.5C 81.7957,288.939 80.4624,292.605 79.5,296.5C 76.9278,301.315 74.5944,306.315 72.5,311.5C 70.8333,314.833 69.1667,318.167 67.5,321.5C 65.8193,324.203 64.1526,326.869 62.5,329.5C 62.8315,298.995 62.4981,268.662 61.5,238.5C 62.6085,237.71 63.9419,237.21 65.5,237C 77.0076,236.174 88.3409,236.341 99.5,237.5 Z"/></g>
<g><path style="opacity:1" fill="#212c2a" d="M 83.5,237.5 C 88.8333,237.5 94.1667,237.5 99.5,237.5C 121.925,238.238 143.925,241.571 165.5,247.5C 168.961,248.93 172.628,250.096 176.5,251C 177.516,251.519 178.182,252.353 178.5,253.5C 176.612,264.053 173.945,274.387 170.5,284.5C 141.057,269.612 112.057,253.946 83.5,237.5 Z"/></g>
<g><path style="opacity:1" fill="#293935" d="M 83.5,237.5 C 112.057,253.946 141.057,269.612 170.5,284.5C 169.203,288.083 167.537,291.416 165.5,294.5C 139.875,281.354 114.542,267.688 89.5,253.5C 88.899,246.123 85.2323,240.956 78.5,238C 80.1341,237.506 81.8008,237.34 83.5,237.5 Z"/></g>
<g><path style="opacity:1" fill="#7cafa2" d="M 654.5,230.5 C 654.5,243.167 654.5,255.833 654.5,268.5C 647.709,273.402 640.709,278.068 633.5,282.5C 633.5,271.167 633.5,259.833 633.5,248.5C 639.905,241.758 646.905,235.758 654.5,230.5 Z"/></g>
<g><path style="opacity:1" fill="#538877" d="M 61.5,238.5 C 62.4981,268.662 62.8315,298.995 62.5,329.5C 60.5,332.833 58.5,336.167 56.5,339.5C 53.8621,342.474 51.1954,345.474 48.5,348.5C 48.1667,348.5 47.8333,348.5 47.5,348.5C 47.6667,314.832 47.5,281.165 47,247.5C 46.3292,248.252 45.4959,248.586 44.5,248.5C 49.0493,243.388 54.716,240.054 61.5,238.5 Z"/></g>
<g><path style="opacity:1" fill="#4e7f70" d="M 47.5,348.5 C 45,351.832 42,354.666 38.5,357C 55.8333,366.333 73.1667,375.667 90.5,385C 91.2524,385.671 91.5858,386.504 91.5,387.5C 88.681,390.075 85.681,392.408 82.5,394.5C 64.5676,383.763 46.2343,373.596 27.5,364C 29.8333,362.5 32.1667,361 34.5,359.5C 35.8301,326.002 35.8301,292.669 34.5,259.5C 37.1231,255.209 40.4564,251.543 44.5,248.5C 45.4959,248.586 46.3292,248.252 47,247.5C 47.5,281.165 47.6667,314.832 47.5,348.5 Z"/></g>
<g><path style="opacity:1" fill="#394f4a" d="M 89.5,253.5 C 114.542,267.688 139.875,281.354 165.5,294.5C 164.724,298.052 163.391,301.386 161.5,304.5C 158.309,303.908 155.309,302.741 152.5,301C 131.272,289.221 109.939,277.721 88.5,266.5C 89.2949,262.215 89.6282,257.881 89.5,253.5 Z"/></g>
<g><path style="opacity:1" fill="#8bc3b5" d="M 633.5,248.5 C 633.5,259.833 633.5,271.167 633.5,282.5C 624.149,288.194 614.816,293.86 605.5,299.5C 604.833,290.833 604.167,282.167 603.5,273.5C 613.46,265.177 623.46,256.844 633.5,248.5 Z"/></g>
<g><path style="opacity:1" fill="#456f63" d="M 34.5,259.5 C 35.8301,292.669 35.8301,326.002 34.5,359.5C 32.1667,361 29.8333,362.5 27.5,364C 46.2343,373.596 64.5676,383.763 82.5,394.5C 81.0858,396.054 79.4192,397.388 77.5,398.5C 70.3322,393.333 62.3322,391 53.5,391.5C 40.0321,384.265 26.6987,376.765 13.5,369C 14.7659,368.691 15.9326,368.191 17,367.5C 17.6667,341.833 17.6667,316.167 17,290.5C 16.6174,291.056 16.1174,291.389 15.5,291.5C 20.3257,279.834 26.659,269.168 34.5,259.5 Z"/></g>
<g><path style="opacity:1" fill="#445f58" d="M 88.5,266.5 C 109.939,277.721 131.272,289.221 152.5,301C 155.309,302.741 158.309,303.908 161.5,304.5C 159.819,307.203 158.153,309.869 156.5,312.5C 135.061,301.279 113.728,289.779 92.5,278C 90.3083,276.933 88.6417,275.433 87.5,273.5C 87.6741,271.139 88.0074,268.806 88.5,266.5 Z"/></g>
<g><path style="opacity:1" fill="#4e6d66" d="M 87.5,273.5 C 88.6417,275.433 90.3083,276.933 92.5,278C 113.728,289.779 135.061,301.279 156.5,312.5C 155.099,315.634 153.432,318.634 151.5,321.5C 128.586,310.042 105.92,298.042 83.5,285.5C 84.235,281.195 85.5683,277.195 87.5,273.5 Z"/></g>
<g><path style="opacity:1" fill="#75a89b" d="M 603.5,273.5 C 604.167,282.167 604.833,290.833 605.5,299.5C 597.212,305.651 588.545,311.317 579.5,316.5C 578.833,309.167 578.167,301.833 577.5,294.5C 585.761,287.031 594.428,280.031 603.5,273.5 Z"/></g>
<g><path style="opacity:1" fill="#f9f9f9" d="M 233.5,441.5 C 233.7,438.37 234.366,435.37 235.5,432.5C 239.761,416.879 243.928,401.213 248,385.5C 251.333,378.167 254.667,370.833 258,363.5C 261.812,350.512 262.145,337.512 259,324.5C 254.996,311.655 246.496,303.988 233.5,301.5C 255.925,280.646 277.425,281.646 298,304.5C 312.355,327.655 316.688,352.655 311,379.5C 308.12,400.256 299.62,418.256 285.5,433.5C 270.036,448.704 252.702,451.371 233.5,441.5 Z"/></g>
<g><path style="opacity:1" fill="#5c8178" d="M 83.5,285.5 C 105.92,298.042 128.586,310.042 151.5,321.5C 149.066,325.382 146.399,329.048 143.5,332.5C 121.808,320.991 100.474,308.991 79.5,296.5C 80.4624,292.605 81.7957,288.939 83.5,285.5 Z"/></g>
<g><path style="opacity:1" fill="#3b6056" d="M 53.5,391.5 C 50.0303,392.775 46.697,394.442 43.5,396.5C 30.8955,389.528 18.2288,382.528 5.5,375.5C 4.61432,376.325 4.28099,377.325 4.5,378.5C 2.07338,372.694 0.406717,366.694 -0.5,360.5C -0.5,354.833 -0.5,349.167 -0.5,343.5C 2.58813,325.563 7.92147,308.23 15.5,291.5C 16.1174,291.389 16.6174,291.056 17,290.5C 17.6667,316.167 17.6667,341.833 17,367.5C 15.9326,368.191 14.7659,368.691 13.5,369C 26.6987,376.765 40.0321,384.265 53.5,391.5 Z"/></g>
<g><path style="opacity:1" fill="#96cdbf" d="M 222.5,301.5 C 226.065,302.787 229.732,302.787 233.5,301.5C 246.496,303.988 254.996,311.655 259,324.5C 262.145,337.512 261.812,350.512 258,363.5C 254.667,370.833 251.333,378.167 248,385.5C 243.928,401.213 239.761,416.879 235.5,432.5C 232.8,431.644 230.466,430.144 228.5,428C 224.417,428.779 222.084,426.946 221.5,422.5C 223.449,410.088 225.782,397.755 228.5,385.5C 232.483,381.51 236.15,377.177 239.5,372.5C 243.035,368.609 245.702,364.109 247.5,359C 245.508,358.426 244.008,357.259 243,355.5C 242.026,357.878 241.359,357.544 241,354.5C 240.667,355.167 240.333,355.833 240,356.5C 239.019,353.311 237.686,352.978 236,355.5C 234.989,354.663 233.822,354.33 232.5,354.5C 232.5,353.5 232.5,352.5 232.5,351.5C 233.578,348.598 234.244,345.598 234.5,342.5C 235.972,338.081 236.638,333.414 236.5,328.5C 236.39,323.164 234.724,318.497 231.5,314.5C 230.797,312.284 229.464,310.451 227.5,309C 223.654,306.997 219.654,305.497 215.5,304.5C 217.679,303.323 220.013,302.323 222.5,301.5 Z"/></g>
<g><path style="opacity:1" fill="#6e9a90" d="M 79.5,296.5 C 100.474,308.991 121.808,320.991 143.5,332.5C 140.975,336.896 137.975,340.896 134.5,344.5C 114.081,332.958 93.4143,321.958 72.5,311.5C 74.5944,306.315 76.9278,301.315 79.5,296.5 Z"/></g>
<g><path style="opacity:1" fill="#588579" d="M 577.5,294.5 C 578.167,301.833 578.833,309.167 579.5,316.5C 576.151,318.934 572.651,321.267 569,323.5C 566.39,327.742 563.557,331.742 560.5,335.5C 559.833,326.833 559.167,318.167 558.5,309.5C 564.522,304.15 570.855,299.15 577.5,294.5 Z"/></g>
<g><path style="opacity:1" fill="#69a995" d="M 215.5,304.5 C 219.654,305.497 223.654,306.997 227.5,309C 229.464,310.451 230.797,312.284 231.5,314.5C 218.213,316.153 204.88,317.486 191.5,318.5C 197.691,310.738 205.691,306.071 215.5,304.5 Z"/></g>
<g><path style="opacity:1" fill="#456e63" d="M 558.5,309.5 C 559.167,318.167 559.833,326.833 560.5,335.5C 558.91,339.098 557.41,342.764 556,346.5C 555.766,355.842 555.766,365.175 556,374.5C 552.75,381.231 548.583,387.231 543.5,392.5C 543.831,369.327 543.498,346.327 542.5,323.5C 546.888,317.78 552.222,313.113 558.5,309.5 Z"/></g>
<g><path style="opacity:1" fill="#fbfbfb" d="M 813.5,340.5 C 810.772,344.737 807.439,348.571 803.5,352C 789.397,364.548 774.397,375.882 758.5,386C 748.805,391.572 738.472,393.572 727.5,392C 748.53,415.049 760.696,442.216 764,473.5C 765.917,489.162 765.917,504.829 764,520.5C 759.57,543.08 755.57,565.747 752,588.5C 751.617,589.056 751.117,589.389 750.5,589.5C 747.731,561.368 741.564,534.035 732,507.5C 723.454,489.255 711.62,473.421 696.5,460C 670.737,437.606 642.403,418.939 611.5,404C 610.438,388.584 614.105,374.25 622.5,361C 626.833,360.333 631.167,360.333 635.5,361C 646.032,364.27 656.699,366.937 667.5,369C 682.029,370.372 696.362,369.372 710.5,366C 720.962,360.602 731.295,354.935 741.5,349C 757.333,337.833 773.167,326.667 789,315.5C 797.369,323.702 805.536,332.035 813.5,340.5 Z"/></g>
<g><path style="opacity:1" fill="#7eb2a5" d="M 72.5,311.5 C 93.4143,321.958 114.081,332.958 134.5,344.5C 132.058,347.729 129.392,350.729 126.5,353.5C 107.597,341.546 87.9303,330.88 67.5,321.5C 69.1667,318.167 70.8333,314.833 72.5,311.5 Z"/></g>
<g><path style="opacity:1" fill="#5d9987" d="M 231.5,314.5 C 234.724,318.497 236.39,323.164 236.5,328.5C 235.71,327.391 235.21,326.058 235,324.5C 218.73,326.736 202.23,328.736 185.5,330.5C 186.975,326.217 188.975,322.217 191.5,318.5C 204.88,317.486 218.213,316.153 231.5,314.5 Z"/></g>
<g><path style="opacity:1" fill="#8ac2b4" d="M 67.5,321.5 C 87.9303,330.88 107.597,341.546 126.5,353.5C 121.871,359.797 116.538,365.463 110.5,370.5C 92.5,360.167 74.5,349.833 56.5,339.5C 58.5,336.167 60.5,332.833 62.5,329.5C 64.1526,326.869 65.8193,324.203 67.5,321.5 Z"/></g>
<g><path style="opacity:1" fill="#375b51" d="M 542.5,323.5 C 543.498,346.327 543.831,369.327 543.5,392.5C 539.956,397.358 535.122,400.025 529,400.5C 522.958,398.228 517.125,395.561 511.5,392.5C 519.686,391.324 526.519,387.657 532,381.5C 533.063,367.863 534.063,354.196 535,340.5C 536.461,334.251 538.961,328.584 542.5,323.5 Z"/></g>
<g><path style="opacity:0.655" fill="#777777" d="M 844.5,336.5 C 845.906,336.973 846.573,337.973 846.5,339.5C 845.094,339.027 844.427,338.027 844.5,336.5 Z"/></g>
<g><path style="opacity:1" fill="#4d8070" d="M 236.5,328.5 C 236.638,333.414 235.972,338.081 234.5,342.5C 234.44,341.957 234.107,341.624 233.5,341.5C 216.886,343.827 200.219,345.827 183.5,347.5C 183.353,342.786 183.686,338.119 184.5,333.5C 184.263,332.209 184.596,331.209 185.5,330.5C 202.23,328.736 218.73,326.736 235,324.5C 235.21,326.058 235.71,327.391 236.5,328.5 Z"/></g>
<g><path style="opacity:1" fill="#d6d6d6" d="M 813.5,340.5 C 827.049,355.4 838.716,371.733 848.5,389.5C 827.768,409.068 805.435,426.568 781.5,442C 797.102,481.421 800.602,521.921 792,563.5C 784.467,590.907 771.467,615.241 753,636.5C 752.091,620.806 751.258,605.139 750.5,589.5C 751.117,589.389 751.617,589.056 752,588.5C 755.57,565.747 759.57,543.08 764,520.5C 765.917,504.829 765.917,489.162 764,473.5C 760.696,442.216 748.53,415.049 727.5,392C 738.472,393.572 748.805,391.572 758.5,386C 774.397,375.882 789.397,364.548 803.5,352C 807.439,348.571 810.772,344.737 813.5,340.5 Z"/></g>
<g><path style="opacity:1" fill="#71b19e" d="M 184.5,333.5 C 183.686,338.119 183.353,342.786 183.5,347.5C 183.769,351.931 183.436,356.265 182.5,360.5C 181.078,361.925 179.411,362.925 177.5,363.5C 175.176,362.413 173.342,360.747 172,358.5C 171.577,359.956 170.744,360.456 169.5,360C 167.559,358.184 166.892,356.184 167.5,354C 166.638,351.266 165.805,351.099 165,353.5C 164.623,352.058 163.79,351.058 162.5,350.5C 169.433,344.361 176.767,338.694 184.5,333.5 Z"/></g>
<g><path style="opacity:1" fill="#78ac9f" d="M 56.5,339.5 C 74.5,349.833 92.5,360.167 110.5,370.5C 108.12,373.881 105.12,376.547 101.5,378.5C 83.6711,368.753 66.0044,358.753 48.5,348.5C 51.1954,345.474 53.8621,342.474 56.5,339.5 Z"/></g>
<g><path style="opacity:1" fill="#3d665a" d="M 234.5,342.5 C 234.244,345.598 233.578,348.598 232.5,351.5C 231.016,355.132 229.016,358.466 226.5,361.5C 213.222,362.118 200.222,363.784 187.5,366.5C 186.313,364.928 185.313,363.261 184.5,361.5C 183.833,361.167 183.167,360.833 182.5,360.5C 183.436,356.265 183.769,351.931 183.5,347.5C 200.219,345.827 216.886,343.827 233.5,341.5C 234.107,341.624 234.44,341.957 234.5,342.5 Z"/></g>
<g><path style="opacity:1" fill="#67988b" d="M 47.5,348.5 C 47.8333,348.5 48.1667,348.5 48.5,348.5C 66.0044,358.753 83.6711,368.753 101.5,378.5C 99.1395,381.527 96.4729,384.194 93.5,386.5C 92.8333,386.833 92.1667,387.167 91.5,387.5C 91.5858,386.504 91.2524,385.671 90.5,385C 73.1667,375.667 55.8333,366.333 38.5,357C 42,354.666 45,351.832 47.5,348.5 Z"/></g>
<g><path style="opacity:1" fill="#64a08e" d="M 162.5,350.5 C 163.79,351.058 164.623,352.058 165,353.5C 165.805,351.099 166.638,351.266 167.5,354C 166.892,356.184 167.559,358.184 169.5,360C 170.744,360.456 171.577,359.956 172,358.5C 173.342,360.747 175.176,362.413 177.5,363.5C 170.718,369.064 163.718,374.398 156.5,379.5C 153.64,375.645 150.64,371.812 147.5,368C 147.833,367.667 148.167,367.333 148.5,367C 147.051,365.898 145.718,364.731 144.5,363.5C 150.138,358.679 156.138,354.346 162.5,350.5 Z"/></g>
<g><path style="opacity:1" fill="#82b6a8" d="M 232.5,351.5 C 232.5,352.5 232.5,353.5 232.5,354.5C 233.822,354.33 234.989,354.663 236,355.5C 237.686,352.978 239.019,353.311 240,356.5C 240.333,355.833 240.667,355.167 241,354.5C 241.359,357.544 242.026,357.878 243,355.5C 244.008,357.259 245.508,358.426 247.5,359C 245.702,364.109 243.035,368.609 239.5,372.5C 233.836,370.599 228.503,368.932 223.5,367.5C 224.5,365.5 225.5,363.5 226.5,361.5C 229.016,358.466 231.016,355.132 232.5,351.5 Z"/></g>
<g><path style="opacity:1" fill="#32554b" d="M 226.5,361.5 C 225.5,363.5 224.5,365.5 223.5,367.5C 217.693,373.236 210.693,376.569 202.5,377.5C 195.538,376.542 190.538,372.875 187.5,366.5C 200.222,363.784 213.222,362.118 226.5,361.5 Z"/></g>
<g><path style="opacity:1" fill="#588f7e" d="M 144.5,363.5 C 145.718,364.731 147.051,365.898 148.5,367C 148.167,367.333 147.833,367.667 147.5,368C 150.64,371.812 153.64,375.645 156.5,379.5C 152.135,383.189 147.469,386.522 142.5,389.5C 138.721,384.248 134.721,379.248 130.5,374.5C 134.765,370.362 139.431,366.695 144.5,363.5 Z"/></g>
<g><path style="opacity:1" fill="#fefefe" d="M 820.5,375.5 C 834.767,375.272 839.601,381.939 835,395.5C 826.048,403.078 818.714,401.745 813,391.5C 812.005,384.492 814.505,379.158 820.5,375.5 Z"/></g>
<g><path style="opacity:1" fill="#315248" d="M 43.5,396.5 C 40.9906,397.921 38.6572,399.588 36.5,401.5C 27.7234,396.274 18.7234,391.274 9.5,386.5C 8.61432,387.325 8.28099,388.325 8.5,389.5C 6.39867,386.203 5.06533,382.537 4.5,378.5C 4.28099,377.325 4.61432,376.325 5.5,375.5C 18.2288,382.528 30.8955,389.528 43.5,396.5 Z"/></g>
<g><path style="opacity:1" fill="#4e8070" d="M 130.5,374.5 C 134.721,379.248 138.721,384.248 142.5,389.5C 140.167,391.5 137.833,393.5 135.5,395.5C 130.992,398.253 126.659,401.253 122.5,404.5C 119.607,398.612 115.94,393.278 111.5,388.5C 117.617,383.601 123.951,378.934 130.5,374.5 Z"/></g>
<g><path style="opacity:1" fill="#71a094" d="M 184.5,361.5 C 185.313,363.261 186.313,364.928 187.5,366.5C 190.538,372.875 195.538,376.542 202.5,377.5C 210.693,376.569 217.693,373.236 223.5,367.5C 228.503,368.932 233.836,370.599 239.5,372.5C 236.15,377.177 232.483,381.51 228.5,385.5C 221.858,388.577 214.858,390.244 207.5,390.5C 193.532,385.862 185.865,376.195 184.5,361.5 Z"/></g>
<g><path style="opacity:1" fill="#090909" d="M 659.5,385.5 C 669.887,385.111 672.887,389.611 668.5,399C 660.048,402.202 655.881,399.368 656,390.5C 656.997,388.677 658.164,387.01 659.5,385.5 Z"/></g>
<g><path style="opacity:1" fill="#f8f9f9" d="M 228.5,385.5 C 225.782,397.755 223.449,410.088 221.5,422.5C 220.833,423.5 220.167,424.5 219.5,425.5C 212.897,414.769 208.897,403.103 207.5,390.5C 214.858,390.244 221.858,388.577 228.5,385.5 Z"/></g>
<g><path style="opacity:1" fill="#436f62" d="M 111.5,388.5 C 115.94,393.278 119.607,398.612 122.5,404.5C 119.98,406.263 117.647,408.263 115.5,410.5C 112.467,412.016 109.8,414.016 107.5,416.5C 105.593,409.784 103.26,403.117 100.5,396.5C 104.167,393.833 107.833,391.167 111.5,388.5 Z"/></g>
<g><path style="opacity:1" fill="#27443c" d="M 36.5,401.5 C 31.916,405.669 28.5827,410.669 26.5,416.5C 25.607,418.297 24.2737,419.63 22.5,420.5C 17.0132,410.527 12.3465,400.194 8.5,389.5C 8.28099,388.325 8.61432,387.325 9.5,386.5C 18.7234,391.274 27.7234,396.274 36.5,401.5 Z"/></g>
<g><path style="opacity:1" fill="#f4f5f5" d="M 135.5,395.5 C 144.643,416.011 146.976,437.345 142.5,459.5C 136.214,459.919 130.214,461.252 124.5,463.5C 120.251,464.626 116.251,466.293 112.5,468.5C 123.315,449.711 124.315,430.377 115.5,410.5C 117.647,408.263 119.98,406.263 122.5,404.5C 126.659,401.253 130.992,398.253 135.5,395.5 Z"/></g>
<g><path style="opacity:1" fill="#73baa5" d="M 93.5,386.5 C 95.8458,389.871 98.1792,393.204 100.5,396.5C 103.26,403.117 105.593,409.784 107.5,416.5C 108.944,428.718 107.944,440.718 104.5,452.5C 99.5603,449.23 95.2269,445.23 91.5,440.5C 91.5,439.5 91.5,438.5 91.5,437.5C 91.5,433.833 91.5,430.167 91.5,426.5C 90.9396,424.199 90.4396,421.866 90,419.5C 89.3109,418.643 88.4776,417.977 87.5,417.5C 83.6315,418.071 79.7982,418.405 76,418.5C 57.6493,417.184 41.1493,416.517 26.5,416.5C 28.5827,410.669 31.916,405.669 36.5,401.5C 38.6572,399.588 40.9906,397.921 43.5,396.5C 46.697,394.442 50.0303,392.775 53.5,391.5C 62.3322,391 70.3322,393.333 77.5,398.5C 79.4192,397.388 81.0858,396.054 82.5,394.5C 85.681,392.408 88.681,390.075 91.5,387.5C 92.1667,387.167 92.8333,386.833 93.5,386.5 Z"/></g>
<g><path style="opacity:1" fill="#fdfdfd" d="M 801.5,398.5 C 809.885,397.716 813.051,401.383 811,409.5C 801.423,415.501 797.09,412.834 798,401.5C 799.145,400.364 800.312,399.364 801.5,398.5 Z"/></g>
<g><path style="opacity:1" fill="#63a08d" d="M 26.5,416.5 C 41.1493,416.517 57.6493,417.184 76,418.5C 79.7982,418.405 83.6315,418.071 87.5,417.5C 88.4776,417.977 89.3109,418.643 90,419.5C 90.4396,421.866 90.9396,424.199 91.5,426.5C 78.4676,426.295 63.6343,425.628 47,424.5C 37.5325,425.183 29.0325,425.516 21.5,425.5C 22.038,423.883 22.3713,422.216 22.5,420.5C 24.2737,419.63 25.607,418.297 26.5,416.5 Z"/></g>
<g><path style="opacity:1" fill="#fcfcfc" d="M 367.5,424.5 C 379.993,423.34 392.66,423.173 405.5,424C 447.027,427.051 487.694,434.551 527.5,446.5C 535.86,454.528 544.193,462.528 552.5,470.5C 556.861,475.193 561.195,479.859 565.5,484.5C 573.084,495.336 580.418,506.336 587.5,517.5C 591.787,525.075 595.787,532.742 599.5,540.5C 601.523,545.587 603.523,550.587 605.5,555.5C 608.182,563.589 610.849,571.589 613.5,579.5C 622.077,615.848 623.744,652.515 618.5,689.5C 617.598,692.997 616.931,696.663 616.5,700.5C 610.8,717.271 605.467,734.271 600.5,751.5C 596.687,763.744 593.02,776.077 589.5,788.5C 586.847,797.815 584.18,807.148 581.5,816.5C 578.248,826.429 575.248,836.429 572.5,846.5C 569.637,855.759 566.97,865.093 564.5,874.5C 558.653,892.459 557.153,910.792 560,929.5C 561.212,934.38 562.712,939.047 564.5,943.5C 570.551,970.829 576.718,998.162 583,1025.5C 583.925,1032.64 584.425,1039.8 584.5,1047C 585.334,1071 575.667,1089.34 555.5,1102C 536.647,1109.77 516.98,1113.6 496.5,1113.5C 493.941,1113.2 491.607,1113.53 489.5,1114.5C 474.982,1112.14 460.649,1109.47 446.5,1106.5C 476.883,1077.13 500.383,1042.8 517,1003.5C 520.752,993.826 522.919,983.826 523.5,973.5C 524.833,960.167 524.833,946.833 523.5,933.5C 523.093,927.839 522.76,922.172 522.5,916.5C 521.605,904.115 520.272,891.782 518.5,879.5C 517.161,866.785 515.494,854.119 513.5,841.5C 512.111,831.777 510.445,822.11 508.5,812.5C 501.088,769.521 489.922,727.521 475,686.5C 454.008,630.183 430.008,575.183 403,521.5C 390.56,489.306 378.726,456.972 367.5,424.5 Z"/></g>
<g><path style="opacity:1" fill="#2d2e2e" d="M 367.5,424.5 C 378.726,456.972 390.56,489.306 403,521.5C 430.008,575.183 454.008,630.183 475,686.5C 489.922,727.521 501.088,769.521 508.5,812.5C 456.594,698.35 404.928,584.016 353.5,469.5C 356.481,453.891 361.147,438.891 367.5,424.5 Z"/></g>
<g><path style="opacity:1" fill="#558b7b" d="M 91.5,426.5 C 91.5,430.167 91.5,433.833 91.5,437.5C 81.7477,437.115 71.581,436.449 61,435.5C 47.0067,436.508 33.5067,436.508 20.5,435.5C 20.9227,437.781 20.256,439.448 18.5,440.5C 19.3729,435.469 20.3729,430.469 21.5,425.5C 29.0325,425.516 37.5325,425.183 47,424.5C 63.6343,425.628 78.4676,426.295 91.5,426.5 Z"/></g>
<g><path style="opacity:1" fill="#7eb0a3" d="M 221.5,422.5 C 222.084,426.946 224.417,428.779 228.5,428C 230.466,430.144 232.8,431.644 235.5,432.5C 234.366,435.37 233.7,438.37 233.5,441.5C 232.662,441.842 232.328,442.508 232.5,443.5C 228.327,442.956 224.327,441.79 220.5,440C 219.027,439.29 218.36,438.124 218.5,436.5C 218.4,433.333 219.067,430.333 220.5,427.5C 220.137,426.817 219.804,426.15 219.5,425.5C 220.167,424.5 220.833,423.5 221.5,422.5 Z"/></g>
<g><path style="opacity:1" fill="#487366" d="M 91.5,437.5 C 91.5,438.5 91.5,439.5 91.5,440.5C 90.816,443.592 89.816,446.592 88.5,449.5C 66.3603,447.729 44.0269,447.062 21.5,447.5C 21.2511,451.458 21.9177,455.124 23.5,458.5C 24.7417,462.655 26.7417,466.322 29.5,469.5C 34.7521,477.961 42.4188,481.961 52.5,481.5C 63.0696,482.048 71.4029,478.048 77.5,469.5C 77.8333,469.5 78.1667,469.5 78.5,469.5C 80.7657,473.436 83.7657,476.769 87.5,479.5C 74.4576,494.067 58.4576,498.734 39.5,493.5C 23.2049,486.27 15.5383,473.604 16.5,455.5C 16.3343,450.245 17.001,445.245 18.5,440.5C 20.256,439.448 20.9227,437.781 20.5,435.5C 33.5067,436.508 47.0067,436.508 61,435.5C 71.581,436.449 81.7477,437.115 91.5,437.5 Z"/></g>
<g><path style="opacity:1" fill="#6b968b" d="M 218.5,436.5 C 218.36,438.124 219.027,439.29 220.5,440C 224.327,441.79 228.327,442.956 232.5,443.5C 231.18,448.148 229.847,452.815 228.5,457.5C 224.525,456.184 220.525,454.851 216.5,453.5C 215.614,452.675 215.281,451.675 215.5,450.5C 216.216,445.651 217.216,440.985 218.5,436.5 Z"/></g>
<g><path style="opacity:1" fill="#4a7468" d="M 527.5,446.5 C 536.092,449.148 544.758,451.481 553.5,453.5C 553.822,459.358 553.489,465.025 552.5,470.5C 544.193,462.528 535.86,454.528 527.5,446.5 Z"/></g>
<g><path style="opacity:1" fill="#355a50" d="M 88.5,449.5 C 87.6176,453.593 85.951,457.26 83.5,460.5C 63.3309,459.133 43.3309,458.466 23.5,458.5C 21.9177,455.124 21.2511,451.458 21.5,447.5C 44.0269,447.062 66.3603,447.729 88.5,449.5 Z"/></g>
<g><path style="opacity:1" fill="#68998c" d="M 553.5,453.5 C 558.404,453.954 563.07,454.954 567.5,456.5C 565.528,465.44 564.861,474.773 565.5,484.5C 561.195,479.859 556.861,475.193 552.5,470.5C 553.489,465.025 553.822,459.358 553.5,453.5 Z"/></g>
<g><path style="opacity:1" fill="#88bfb1" d="M 567.5,456.5 C 572.833,456.933 578.166,457.433 583.5,458C 585.233,459.189 586.9,460.356 588.5,461.5C 588.83,480.341 588.497,499.007 587.5,517.5C 580.418,506.336 573.084,495.336 565.5,484.5C 564.861,474.773 565.528,465.44 567.5,456.5 Z"/></g>
<g><path style="opacity:1" fill="#8ac8b7" d="M 142.5,459.5 C 166.969,463.292 183.302,476.959 191.5,500.5C 191.688,502.103 191.188,503.437 190,504.5C 189,503.167 188,501.833 187,500.5C 186.667,500.833 186.333,501.167 186,501.5C 184.907,499.651 183.574,497.984 182,496.5C 181.667,496.833 181.333,497.167 181,497.5C 179.907,495.651 178.574,493.984 177,492.5C 176.667,492.833 176.333,493.167 176,493.5C 175.241,491.937 174.074,490.937 172.5,490.5C 170.303,486.762 167.636,483.429 164.5,480.5C 156.059,471.906 145.726,468.239 133.5,469.5C 131.763,467.45 129.763,465.617 127.5,464C 126.552,463.517 125.552,463.351 124.5,463.5C 130.214,461.252 136.214,459.919 142.5,459.5 Z"/></g>
<g><path style="opacity:1" fill="#597c74" d="M 215.5,450.5 C 215.281,451.675 215.614,452.675 216.5,453.5C 220.525,454.851 224.525,456.184 228.5,457.5C 227.363,462.241 226.03,466.907 224.5,471.5C 220.5,470.5 216.5,469.5 212.5,468.5C 212.5,467.167 212.5,465.833 212.5,464.5C 213.01,459.609 214.01,454.942 215.5,450.5 Z"/></g>
<g><path style="opacity:1" fill="#27473e" d="M 23.5,458.5 C 43.3309,458.466 63.3309,459.133 83.5,460.5C 82.2625,463.738 80.5958,466.738 78.5,469.5C 78.1667,469.5 77.8333,469.5 77.5,469.5C 75.2341,469.859 73.4007,469.192 72,467.5C 71.6667,468.167 71.3333,468.833 71,469.5C 70.2588,468.359 69.4255,468.359 68.5,469.5C 67.4593,467.009 66.6259,467.009 66,469.5C 54.8004,468.631 42.6338,468.631 29.5,469.5C 26.7417,466.322 24.7417,462.655 23.5,458.5 Z"/></g>
<g><path style="opacity:1" fill="#5b9683" d="M 91.5,440.5 C 95.2269,445.23 99.5603,449.23 104.5,452.5C 100.841,462.813 95.1744,471.813 87.5,479.5C 83.7657,476.769 80.7657,473.436 78.5,469.5C 80.5958,466.738 82.2625,463.738 83.5,460.5C 85.951,457.26 87.6176,453.593 88.5,449.5C 89.816,446.592 90.816,443.592 91.5,440.5 Z"/></g>
<g><path style="opacity:1" fill="#777c7b" d="M 201.5,468.5 C 195.642,468.178 189.975,468.511 184.5,469.5C 183.957,469.44 183.624,469.107 183.5,468.5C 189.654,467.183 195.654,467.183 201.5,468.5 Z"/></g>
<g><path style="opacity:1" fill="#eeeeee" d="M 201.5,468.5 C 204.167,470.5 206.5,472.833 208.5,475.5C 208.804,476.15 209.137,476.817 209.5,477.5C 208.518,480.096 207.851,482.762 207.5,485.5C 206.181,490.446 205.014,495.446 204,500.5C 203.617,501.056 203.117,501.389 202.5,501.5C 198.572,489.641 192.572,478.974 184.5,469.5C 189.975,468.511 195.642,468.178 201.5,468.5 Z"/></g>
<g><path style="opacity:1" fill="#74a89a" d="M 124.5,463.5 C 125.552,463.351 126.552,463.517 127.5,464C 129.763,465.617 131.763,467.45 133.5,469.5C 127.862,470.816 122.529,472.982 117.5,476C 112.998,479.67 108.665,483.503 104.5,487.5C 104.167,485.167 102.833,483.833 100.5,483.5C 103.79,477.913 107.79,472.913 112.5,468.5C 116.251,466.293 120.251,464.626 124.5,463.5 Z"/></g>
<g><path style="opacity:1" fill="#28292a" d="M 353.5,469.5 C 404.928,584.016 456.594,698.35 508.5,812.5C 510.445,822.11 512.111,831.777 513.5,841.5C 461.442,727.042 409.609,612.376 358,497.5C 354.967,491.777 352.801,485.777 351.5,479.5C 351.549,475.922 352.215,472.589 353.5,469.5 Z"/></g>
<g><path style="opacity:1" fill="#193029" d="M 77.5,469.5 C 71.4029,478.048 63.0696,482.048 52.5,481.5C 42.4188,481.961 34.7521,477.961 29.5,469.5C 42.6338,468.631 54.8004,468.631 66,469.5C 66.6259,467.009 67.4593,467.009 68.5,469.5C 69.4255,468.359 70.2588,468.359 71,469.5C 71.3333,468.833 71.6667,468.167 72,467.5C 73.4007,469.192 75.2341,469.859 77.5,469.5 Z"/></g>
<g><path style="opacity:1" fill="#67a894" d="M 133.5,469.5 C 145.726,468.239 156.059,471.906 164.5,480.5C 141.337,490.519 118.67,500.852 96.5,511.5C 95.5713,510.311 95.238,508.978 95.5,507.5C 96.9625,500.101 99.9625,493.434 104.5,487.5C 108.665,483.503 112.998,479.67 117.5,476C 122.529,472.982 127.862,470.816 133.5,469.5 Z"/></g>
<g><path style="opacity:1" fill="#76a69a" d="M 588.5,461.5 C 593.866,465.538 598.199,470.538 601.5,476.5C 600.566,477.568 600.232,478.901 600.5,480.5C 599.503,500.326 599.17,520.326 599.5,540.5C 595.787,532.742 591.787,525.075 587.5,517.5C 588.497,499.007 588.83,480.341 588.5,461.5 Z"/></g>
<g><path style="opacity:1" fill="#445d57" d="M 212.5,464.5 C 212.5,465.833 212.5,467.167 212.5,468.5C 216.5,469.5 220.5,470.5 224.5,471.5C 223.282,477.384 221.616,483.051 219.5,488.5C 215.603,487.09 211.603,486.09 207.5,485.5C 207.851,482.762 208.518,480.096 209.5,477.5C 209.137,476.817 208.804,476.15 208.5,475.5C 209.117,475.389 209.617,475.056 210,474.5C 210.738,471.009 211.571,467.675 212.5,464.5 Z"/></g>
<g><path style="opacity:1" fill="#6a948a" d="M 600.5,480.5 C 602.863,483.549 604.863,486.882 606.5,490.5C 605.503,511.994 605.169,533.66 605.5,555.5C 603.523,550.587 601.523,545.587 599.5,540.5C 599.17,520.326 599.503,500.326 600.5,480.5 Z"/></g>
<g><path style="opacity:1" fill="#222223" d="M 351.5,479.5 C 352.801,485.777 354.967,491.777 358,497.5C 409.609,612.376 461.442,727.042 513.5,841.5C 515.494,854.119 517.161,866.785 518.5,879.5C 461.775,754.375 405.275,629.042 349,503.5C 348.506,501.866 348.34,500.199 348.5,498.5C 348.613,491.892 349.613,485.559 351.5,479.5 Z"/></g>
<g><path style="opacity:1" fill="#5d9986" d="M 164.5,480.5 C 167.636,483.429 170.303,486.762 172.5,490.5C 173.167,491.833 173.833,493.167 174.5,494.5C 148.196,506.493 121.863,518.493 95.5,530.5C 94.8313,528.369 94.1646,526.369 93.5,524.5C 93.5,524.167 93.5,523.833 93.5,523.5C 93.1557,517.902 93.8224,512.568 95.5,507.5C 95.238,508.978 95.5713,510.311 96.5,511.5C 118.67,500.852 141.337,490.519 164.5,480.5 Z"/></g>
<g><path style="opacity:1" fill="#fafafa" d="M 710.5,511.5 C 728.632,539.326 738.132,569.993 739,603.5C 741.724,685.215 740.724,766.881 736,848.5C 729.694,903.101 711.361,953.101 681,998.5C 658,1028.34 629.5,1051.34 595.5,1067.5C 594.614,1066.68 594.281,1065.68 594.5,1064.5C 596.212,1054.65 598.712,1044.99 602,1035.5C 627.96,997.271 650.627,956.937 670,914.5C 687.849,877.108 698.849,837.775 703,796.5C 707.714,735.227 708.714,673.894 706,612.5C 704.65,600.717 702.65,589.05 700,577.5C 690.464,547.929 677.298,520.096 660.5,494C 679.467,493.319 696.133,499.152 710.5,511.5 Z"/></g>
<g><path style="opacity:1" fill="#31413e" d="M 207.5,485.5 C 211.603,486.09 215.603,487.09 219.5,488.5C 219.5,490.5 219.5,492.5 219.5,494.5C 217.863,497.717 216.53,501.05 215.5,504.5C 212.06,503.909 208.727,502.909 205.5,501.5C 204.583,502.127 203.583,502.461 202.5,502.5C 202.5,502.167 202.5,501.833 202.5,501.5C 203.117,501.389 203.617,501.056 204,500.5C 205.014,495.446 206.181,490.446 207.5,485.5 Z"/></g>
<g><path style="opacity:1" fill="#82b8aa" d="M 601.5,476.5 C 607.233,482.963 612.233,489.963 616.5,497.5C 616.813,501.042 616.479,504.375 615.5,507.5C 615.167,506.833 614.833,506.167 614.5,505.5C 611.579,500.659 608.912,495.659 606.5,490.5C 604.863,486.882 602.863,483.549 600.5,480.5C 600.232,478.901 600.566,477.568 601.5,476.5 Z"/></g>
<g><path style="opacity:1" fill="#ececec" d="M 219.5,494.5 C 222.312,512.859 222.145,531.192 219,549.5C 212.121,557.352 203.621,562.185 193.5,564C 198.174,559.654 201.674,554.487 204,548.5C 206.405,539.121 208.905,529.787 211.5,520.5C 213.147,515.244 214.481,509.911 215.5,504.5C 216.53,501.05 217.863,497.717 219.5,494.5 Z"/></g>
<g><path style="opacity:1" fill="#5d8179" d="M 606.5,490.5 C 608.912,495.659 611.579,500.659 614.5,505.5C 613.502,529.994 613.169,554.661 613.5,579.5C 610.849,571.589 608.182,563.589 605.5,555.5C 605.169,533.66 605.503,511.994 606.5,490.5 Z"/></g>
<g><path style="opacity:1" fill="#80bfaf" d="M 306.5,566.5 C 304.198,568.077 302.698,567.411 302,564.5C 300.563,566.221 301.063,567.721 303.5,569C 302.285,571.096 301.451,570.929 301,568.5C 299.927,569.28 298.76,569.113 297.5,568C 296.789,566.745 295.956,565.579 295,564.5C 294,564.5 293,564.5 292,564.5C 291.517,563.552 291.351,562.552 291.5,561.5C 291.5,560.833 291.5,560.167 291.5,559.5C 292.475,556.689 293.142,553.689 293.5,550.5C 294.441,545.93 294.774,541.263 294.5,536.5C 294.663,531.453 294.329,526.453 293.5,521.5C 290.667,506.086 281.667,500.253 266.5,504C 260.859,507.645 255.859,511.978 251.5,517C 250.184,517.528 249.517,517.028 249.5,515.5C 257.537,503.316 268.87,497.816 283.5,499C 292.357,501.189 298.857,506.356 303,514.5C 310.184,531.408 311.35,548.741 306.5,566.5 Z"/></g>
<g><path style="opacity:1" fill="#1b1b1b" d="M 348.5,498.5 C 348.34,500.199 348.506,501.866 349,503.5C 405.275,629.042 461.775,754.375 518.5,879.5C 520.272,891.782 521.605,904.115 522.5,916.5C 520.73,909.707 518.23,903.04 515,896.5C 458.784,772.076 402.617,647.743 346.5,523.5C 346.5,520.833 346.5,518.167 346.5,515.5C 346.45,509.611 347.116,503.944 348.5,498.5 Z"/></g>
<g><path style="opacity:1" fill="#497267" d="M 100.5,483.5 C 102.833,483.833 104.167,485.167 104.5,487.5C 99.9625,493.434 96.9625,500.101 95.5,507.5C 93.8224,512.568 93.1557,517.902 93.5,523.5C 92.2058,522.71 91.0391,521.71 90,520.5C 89.79,522.058 89.29,523.391 88.5,524.5C 88.3311,509.49 92.3311,495.824 100.5,483.5 Z"/></g>
<g><path style="opacity:1" fill="#508574" d="M 174.5,494.5 C 177.392,500.846 179.058,507.512 179.5,514.5C 153.496,526.169 127.496,537.836 101.5,549.5C 96.4607,542.045 93.794,533.712 93.5,524.5C 94.1646,526.369 94.8313,528.369 95.5,530.5C 121.863,518.493 148.196,506.493 174.5,494.5 Z"/></g>
<g><path style="opacity:1" fill="#7fb6a8" d="M 172.5,490.5 C 174.074,490.937 175.241,491.937 176,493.5C 176.333,493.167 176.667,492.833 177,492.5C 178.574,493.984 179.907,495.651 181,497.5C 181.333,497.167 181.667,496.833 182,496.5C 183.574,497.984 184.907,499.651 186,501.5C 186.333,501.167 186.667,500.833 187,500.5C 188,501.833 189,503.167 190,504.5C 191.188,503.437 191.688,502.103 191.5,500.5C 194.859,509.748 196.193,519.415 195.5,529.5C 194.577,530.303 193.577,530.47 192.5,530C 189.167,527.333 185.833,524.667 182.5,522C 181.033,519.622 180.033,517.122 179.5,514.5C 179.058,507.512 177.392,500.846 174.5,494.5C 173.833,493.167 173.167,491.833 172.5,490.5 Z"/></g>
<g><path style="opacity:1" fill="#6d998f" d="M 616.5,497.5 C 620.831,502.152 624.165,507.486 626.5,513.5C 626.822,519.358 626.489,525.025 625.5,530.5C 625.107,528.716 624.441,527.05 623.5,525.5C 620.833,519.5 618.167,513.5 615.5,507.5C 616.479,504.375 616.813,501.042 616.5,497.5 Z"/></g>
<g><path style="opacity:1" fill="#191e1d" d="M 215.5,504.5 C 214.481,509.911 213.147,515.244 211.5,520.5C 207.973,519.268 204.473,517.935 201,516.5C 200.953,512.184 201.786,508.017 203.5,504C 202.944,503.617 202.611,503.117 202.5,502.5C 203.583,502.461 204.583,502.127 205.5,501.5C 208.727,502.909 212.06,503.909 215.5,504.5 Z"/></g>
<g><path style="opacity:1" fill="#d5d5d5" d="M 710.5,511.5 C 714.131,514.629 717.631,517.963 721,521.5C 735.429,543.587 743.096,567.92 744,594.5C 748.207,671.817 748.541,749.15 745,826.5C 742.579,867.9 737.245,908.9 729,949.5C 724.347,978.793 712.681,1004.79 694,1027.5C 664.408,1059.42 629.575,1083.92 589.5,1101C 588.663,1102.01 588.33,1103.18 588.5,1104.5C 588.135,1099.91 587.135,1095.57 585.5,1091.5C 586.209,1090.6 587.209,1090.26 588.5,1090.5C 589.372,1081.47 591.372,1072.81 594.5,1064.5C 594.281,1065.68 594.614,1066.68 595.5,1067.5C 629.5,1051.34 658,1028.34 681,998.5C 711.361,953.101 729.694,903.101 736,848.5C 740.724,766.881 741.724,685.215 739,603.5C 738.132,569.993 728.632,539.326 710.5,511.5 Z"/></g>
<g><path style="opacity:1" fill="#5a9381" d="M 293.5,521.5 C 279.575,520.352 265.575,520.186 251.5,521C 246.196,524.835 242.529,530.002 240.5,536.5C 239.242,539.772 238.075,543.106 237,546.5C 236.517,545.552 236.351,544.552 236.5,543.5C 238.71,533.086 243.043,523.752 249.5,515.5C 249.517,517.028 250.184,517.528 251.5,517C 255.859,511.978 260.859,507.645 266.5,504C 281.667,500.253 290.667,506.086 293.5,521.5 Z"/></g>
<g><path style="opacity:1" fill="#4b6962" d="M 614.5,505.5 C 614.833,506.167 615.167,506.833 615.5,507.5C 618.167,513.5 620.833,519.5 623.5,525.5C 622.167,578.167 622.167,630.833 623.5,683.5C 622.5,685.5 621.5,687.5 620.5,689.5C 619.305,693.286 618.638,693.286 618.5,689.5C 623.744,652.515 622.077,615.848 613.5,579.5C 613.169,554.661 613.502,529.994 614.5,505.5 Z"/></g>
<g><path style="opacity:1" fill="#141515" d="M 346.5,523.5 C 402.617,647.743 458.784,772.076 515,896.5C 518.23,903.04 520.73,909.707 522.5,916.5C 522.76,922.172 523.093,927.839 523.5,933.5C 464.716,803.257 405.883,672.924 347,542.5C 346.5,536.175 346.334,529.842 346.5,523.5 Z"/></g>
<g><path style="opacity:1" fill="#457566" d="M 179.5,514.5 C 179.819,519.363 179.486,524.03 178.5,528.5C 155.526,538.323 132.86,548.656 110.5,559.5C 106.124,557.423 103.124,554.089 101.5,549.5C 127.496,537.836 153.496,526.169 179.5,514.5 Z"/></g>
<g><path style="opacity:1" fill="#415b55" d="M 623.5,525.5 C 624.441,527.05 625.107,528.716 625.5,530.5C 626.441,532.05 627.107,533.716 627.5,535.5C 626.167,581.833 626.167,628.167 627.5,674.5C 625.892,677.382 624.559,680.382 623.5,683.5C 622.167,630.833 622.167,578.167 623.5,525.5 Z"/></g>
<g><path style="opacity:1" fill="#48796a" d="M 293.5,521.5 C 294.329,526.453 294.663,531.453 294.5,536.5C 274.382,536.933 256.382,536.933 240.5,536.5C 242.529,530.002 246.196,524.835 251.5,521C 265.575,520.186 279.575,520.352 293.5,521.5 Z"/></g>
<g><path style="opacity:1" fill="#53736c" d="M 626.5,513.5 C 632.18,521.521 636.847,530.188 640.5,539.5C 640.828,551.345 640.495,563.012 639.5,574.5C 637.771,565.982 635.438,557.649 632.5,549.5C 631.226,544.677 629.559,540.01 627.5,535.5C 627.107,533.716 626.441,532.05 625.5,530.5C 626.489,525.025 626.822,519.358 626.5,513.5 Z"/></g>
<g><path style="opacity:1" fill="#68998c" d="M 179.5,514.5 C 180.033,517.122 181.033,519.622 182.5,522C 185.833,524.667 189.167,527.333 192.5,530C 193.577,530.47 194.577,530.303 195.5,529.5C 194.606,538.183 191.939,546.183 187.5,553.5C 187.631,552.761 187.464,552.094 187,551.5C 182.974,548.302 179.141,544.968 175.5,541.5C 176.968,537.294 177.968,532.961 178.5,528.5C 179.486,524.03 179.819,519.363 179.5,514.5 Z"/></g>
<g><path style="opacity:1" fill="#f6f6f6" d="M 804.5,538.5 C 808.944,595.667 792.111,645.667 754,688.5C 753.435,676.82 753.102,665.154 753,653.5C 783.148,621.188 800.314,582.855 804.5,538.5 Z"/></g>
<g><path style="opacity:1" fill="#384e49" d="M 627.5,535.5 C 629.559,540.01 631.226,544.677 632.5,549.5C 631.167,586.5 631.167,623.5 632.5,660.5C 631.833,662.167 631.167,663.833 630.5,665.5C 629.698,668.574 628.698,671.574 627.5,674.5C 626.167,628.167 626.167,581.833 627.5,535.5 Z"/></g>
<g><path style="opacity:1" fill="#59867a" d="M 175.5,541.5 C 179.141,544.968 182.974,548.302 187,551.5C 187.464,552.094 187.631,552.761 187.5,553.5C 185.327,557.852 182.66,561.852 179.5,565.5C 175.312,562.235 171.312,558.735 167.5,555C 170.312,550.535 172.979,546.035 175.5,541.5 Z"/></g>
<g><path style="opacity:1" fill="#2a4b42" d="M 93.5,523.5 C 93.5,523.833 93.5,524.167 93.5,524.5C 93.794,533.712 96.4607,542.045 101.5,549.5C 103.124,554.089 106.124,557.423 110.5,559.5C 118.407,568.276 128.407,572.443 140.5,572C 136.81,571.576 136.643,570.742 140,569.5C 141.016,570.634 141.683,570.301 142,568.5C 142.333,568.833 142.667,569.167 143,569.5C 145.393,567.45 148.059,565.783 151,564.5C 152.016,565.634 152.683,565.301 153,563.5C 154.016,564.634 154.683,564.301 155,562.5C 155.333,562.833 155.667,563.167 156,563.5C 157.36,561.496 159.193,560.663 161.5,561C 156.921,566.125 151.254,569.458 144.5,571C 148.734,574.082 153.067,576.916 157.5,579.5C 149.147,582.881 140.48,583.381 131.5,581C 105.324,571.308 90.9906,552.475 88.5,524.5C 89.29,523.391 89.79,522.058 90,520.5C 91.0391,521.71 92.2058,522.71 93.5,523.5 Z"/></g>
<g><path style="opacity:1" fill="#3c6458" d="M 178.5,528.5 C 177.968,532.961 176.968,537.294 175.5,541.5C 172.979,546.035 170.312,550.535 167.5,555C 171.312,558.735 175.312,562.235 179.5,565.5C 173.496,572.173 166.163,576.84 157.5,579.5C 153.067,576.916 148.734,574.082 144.5,571C 151.254,569.458 156.921,566.125 161.5,561C 159.193,560.663 157.36,561.496 156,563.5C 155.667,563.167 155.333,562.833 155,562.5C 154.683,564.301 154.016,564.634 153,563.5C 152.683,565.301 152.016,565.634 151,564.5C 148.059,565.783 145.393,567.45 143,569.5C 142.667,569.167 142.333,568.833 142,568.5C 141.683,570.301 141.016,570.634 140,569.5C 136.643,570.742 136.81,571.576 140.5,572C 128.407,572.443 118.407,568.276 110.5,559.5C 132.86,548.656 155.526,538.323 178.5,528.5 Z"/></g>
<g><path style="opacity:1" fill="#2e5147" d="M 293.5,550.5 C 293.142,553.689 292.475,556.689 291.5,559.5C 273.167,559.5 254.833,559.5 236.5,559.5C 236.5,562.167 236.5,564.833 236.5,567.5C 235.721,562.006 235.721,556.339 236.5,550.5C 256.783,550.099 275.783,550.099 293.5,550.5 Z"/></g>
<g><path style="opacity:1" fill="#2d3e3b" d="M 632.5,549.5 C 635.438,557.649 637.771,565.982 639.5,574.5C 644.096,598.402 643.096,622.069 636.5,645.5C 635.573,650.613 634.24,655.613 632.5,660.5C 631.167,623.5 631.167,586.5 632.5,549.5 Z"/></g>
<g><path style="opacity:1" fill="#3d554f" d="M 644.5,548.5 C 646.601,551.797 647.935,555.463 648.5,559.5C 648.5,605.833 648.5,652.167 648.5,698.5C 647.935,702.537 646.601,706.203 644.5,709.5C 644.5,655.833 644.5,602.167 644.5,548.5 Z"/></g>
<g><path style="opacity:1" fill="#0b0b0c" d="M 346.5,515.5 C 346.5,518.167 346.5,520.833 346.5,523.5C 346.334,529.842 346.5,536.175 347,542.5C 405.883,672.924 464.716,803.257 523.5,933.5C 524.833,946.833 524.833,960.167 523.5,973.5C 467.107,848.381 410.441,723.381 353.5,598.5C 352.686,596.369 352.186,594.036 352,591.5C 351.617,590.944 351.117,590.611 350.5,590.5C 350.982,589.584 351.315,588.584 351.5,587.5C 346.829,563.541 345.163,539.541 346.5,515.5 Z"/></g>
<g><path style="opacity:1" fill="#324642" d="M 648.5,559.5 C 651.407,565.098 653.407,571.098 654.5,577.5C 654.5,611.833 654.5,646.167 654.5,680.5C 653.408,686.894 651.408,692.894 648.5,698.5C 648.5,652.167 648.5,605.833 648.5,559.5 Z"/></g>
<g><path style="opacity:1" fill="#203b33" d="M 291.5,559.5 C 291.5,560.167 291.5,560.833 291.5,561.5C 289.71,566.414 287.376,571.081 284.5,575.5C 269.009,574.504 253.342,574.17 237.5,574.5C 236.532,572.393 236.198,570.059 236.5,567.5C 236.5,564.833 236.5,562.167 236.5,559.5C 254.833,559.5 273.167,559.5 291.5,559.5 Z"/></g>
<g><path style="opacity:1" fill="#629385" d="M 291.5,561.5 C 291.351,562.552 291.517,563.552 292,564.5C 293,564.5 294,564.5 295,564.5C 295.956,565.579 296.789,566.745 297.5,568C 298.76,569.113 299.927,569.28 301,568.5C 301.451,570.929 302.285,571.096 303.5,569C 301.063,567.721 300.563,566.221 302,564.5C 302.698,567.411 304.198,568.077 306.5,566.5C 303.122,579.864 296.122,590.864 285.5,599.5C 280.647,597.579 276.314,594.912 272.5,591.5C 275.543,589.457 277.876,586.79 279.5,583.5C 281.95,581.371 283.617,578.704 284.5,575.5C 287.376,571.081 289.71,566.414 291.5,561.5 Z"/></g>
<g><path style="opacity:1" fill="#152924" d="M 237.5,574.5 C 253.342,574.17 269.009,574.504 284.5,575.5C 283.617,578.704 281.95,581.371 279.5,583.5C 267,582.5 254.334,582.5 241.5,583.5C 239.126,581.066 237.792,578.066 237.5,574.5 Z"/></g>
<g><path style="opacity:1" fill="#0f1b18" d="M 279.5,583.5 C 277.876,586.79 275.543,589.457 272.5,591.5C 264.822,596.121 256.822,596.621 248.5,593C 245.152,590.499 242.818,587.332 241.5,583.5C 254.334,582.5 267,582.5 279.5,583.5 Z"/></g>
<g><path style="opacity:1" fill="#283634" d="M 654.5,577.5 C 662.253,604.984 664.086,632.984 660,661.5C 658.609,668.082 656.776,674.415 654.5,680.5C 654.5,646.167 654.5,611.833 654.5,577.5 Z"/></g>
<g><path style="opacity:1" fill="#3f675c" d="M 240.5,536.5 C 256.382,536.933 274.382,536.933 294.5,536.5C 294.774,541.263 294.441,545.93 293.5,550.5C 275.783,550.099 256.783,550.099 236.5,550.5C 235.721,556.339 235.721,562.006 236.5,567.5C 236.198,570.059 236.532,572.393 237.5,574.5C 237.792,578.066 239.126,581.066 241.5,583.5C 242.818,587.332 245.152,590.499 248.5,593C 256.822,596.621 264.822,596.121 272.5,591.5C 276.314,594.912 280.647,597.579 285.5,599.5C 280.262,605.444 273.595,608.11 265.5,607.5C 257.281,607.64 250.448,604.64 245,598.5C 233.912,581.312 231.078,562.978 236.5,543.5C 236.351,544.552 236.517,545.552 237,546.5C 238.075,543.106 239.242,539.772 240.5,536.5 Z"/></g>
<g><path style="opacity:1" fill="#1e2927" d="M 336.5,599.5 C 328.125,608.375 320.292,617.708 313,627.5C 300.015,665.747 294.515,705.08 296.5,745.5C 277.5,750.833 258.5,756.167 239.5,761.5C 237.484,712.954 243.817,665.62 258.5,619.5C 259.338,619.158 259.672,618.492 259.5,617.5C 285.457,617.761 309.791,611.594 332.5,599C 334.066,598.235 335.399,598.402 336.5,599.5 Z"/></g>
<g><path style="opacity:1" fill="#060606" d="M 353.5,598.5 C 410.441,723.381 467.107,848.381 523.5,973.5C 522.919,983.826 520.752,993.826 517,1003.5C 500.383,1042.8 476.883,1077.13 446.5,1106.5C 424.821,1106.04 404.654,1100.37 386,1089.5C 374.085,1095.55 363.085,1094.22 353,1085.5C 351.621,1081.54 350.121,1077.71 348.5,1074C 290.267,1039.78 239.267,996.782 195.5,945C 172.193,942.206 164.193,929.706 171.5,907.5C 172.15,907.804 172.817,908.137 173.5,908.5C 174.145,914.214 174.978,919.881 176,925.5C 180.771,934.466 188.271,937.966 198.5,936C 231.798,975.974 269.465,1010.97 311.5,1041C 326.01,1050.42 341.01,1059.09 356.5,1067C 358.422,1084.63 367.089,1088.96 382.5,1080C 400.46,1077.73 418.127,1074.06 435.5,1069C 444.418,1065.87 452.751,1061.71 460.5,1056.5C 462.605,1055.13 464.939,1054.13 467.5,1053.5C 472.749,1044.75 478.583,1036.42 485,1028.5C 488.981,1022.21 492.147,1015.54 494.5,1008.5C 494.972,1005.1 496.472,1002.1 499,999.5C 499.667,995.167 499.667,990.833 499,986.5C 496.667,978.167 494.333,969.833 492,961.5C 464.289,885.093 434.122,809.76 401.5,735.5C 383.775,692.734 367.775,649.4 353.5,605.5C 353.5,603.167 353.5,600.833 353.5,598.5 Z"/></g>
<g><path style="opacity:1" fill="#1c342d" d="M 353.5,605.5 C 367.775,649.4 383.775,692.734 401.5,735.5C 401.823,742.022 401.49,748.355 400.5,754.5C 384.694,715.081 368.694,675.748 352.5,636.5C 353.494,626.347 353.828,616.014 353.5,605.5 Z"/></g>
<g><path style="opacity:1" fill="#020303" d="M 352.5,636.5 C 368.694,675.748 384.694,715.081 400.5,754.5C 428.157,822.306 455.324,890.306 482,958.5C 486.513,971.199 489.68,984.199 491.5,997.5C 485.925,998.977 480.258,999.977 474.5,1000.5C 427.867,871.274 382.201,741.607 337.5,611.5C 337.62,610.414 338.287,609.747 339.5,609.5C 340.167,609.833 340.833,610.167 341.5,610.5C 345.563,619.028 349.229,627.694 352.5,636.5 Z"/></g>
<g><path style="opacity:1" fill="#48645e" d="M 640.5,539.5 C 642.204,542.256 643.537,545.256 644.5,548.5C 644.5,602.167 644.5,655.833 644.5,709.5C 643.464,715.285 641.464,720.618 638.5,725.5C 637.833,698.833 637.167,672.167 636.5,645.5C 643.096,622.069 644.096,598.402 639.5,574.5C 640.495,563.012 640.828,551.345 640.5,539.5 Z"/></g>
<g><path style="opacity:1" fill="#0b0b0b" d="M 337.5,611.5 C 382.201,741.607 427.867,871.274 474.5,1000.5C 467.031,1002.51 459.364,1002.84 451.5,1001.5C 409.738,882.331 367.738,763.331 325.5,644.5C 325.698,631.993 329.698,620.993 337.5,611.5 Z"/></g>
<g><path style="opacity:1" fill="#1c3a32" d="M 179.5,616.5 C 177.833,616.5 176.167,616.5 174.5,616.5C 167.862,671.172 167.862,725.839 174.5,780.5C 174.67,781.822 174.337,782.989 173.5,784C 159.551,790.632 145.217,797.466 130.5,804.5C 129.817,804.137 129.15,803.804 128.5,803.5C 120.309,777.05 114.476,750.05 111,722.5C 108.721,707.756 109.055,693.089 112,678.5C 120.079,653.834 133.579,632.668 152.5,615C 161.713,614.238 170.713,614.738 179.5,616.5 Z"/></g>
<g><path style="opacity:1" fill="#fbfbfb" d="M 179.5,616.5 C 187.51,616.644 195.51,616.977 203.5,617.5C 221.833,618.167 240.167,618.833 258.5,619.5C 243.817,665.62 237.484,712.954 239.5,761.5C 239.324,766.88 239.658,772.213 240.5,777.5C 240.751,782.507 241.084,787.507 241.5,792.5C 242.327,796.807 242.993,801.14 243.5,805.5C 244.219,807.764 244.552,810.097 244.5,812.5C 245.594,817.673 246.928,822.673 248.5,827.5C 248.659,831.291 249.325,834.958 250.5,838.5C 251.435,842.97 252.768,847.303 254.5,851.5C 255.569,856.479 257.235,861.146 259.5,865.5C 260.238,869.715 261.572,873.715 263.5,877.5C 266.597,885.468 270.264,893.135 274.5,900.5C 275.326,903.485 276.659,906.151 278.5,908.5C 280.749,914.005 283.749,919.005 287.5,923.5C 291.007,929.852 295.007,935.852 299.5,941.5C 304.15,948.145 309.15,954.478 314.5,960.5C 320.798,968.466 327.798,975.799 335.5,982.5C 371.698,1016.11 413.365,1040.78 460.5,1056.5C 452.751,1061.71 444.418,1065.87 435.5,1069C 418.127,1074.06 400.46,1077.73 382.5,1080C 367.089,1088.96 358.422,1084.63 356.5,1067C 341.01,1059.09 326.01,1050.42 311.5,1041C 269.465,1010.97 231.798,975.974 198.5,936C 188.271,937.966 180.771,934.466 176,925.5C 174.978,919.881 174.145,914.214 173.5,908.5C 172.817,908.137 172.15,907.804 171.5,907.5C 156.183,889.827 143.183,870.493 132.5,849.5C 136.481,850.021 140.481,850.354 144.5,850.5C 145.568,851.434 146.901,851.768 148.5,851.5C 151.734,855.622 154.734,859.955 157.5,864.5C 165.093,876.419 173.426,887.752 182.5,898.5C 185.411,903.746 189.078,908.413 193.5,912.5C 197.418,918.754 202.085,924.421 207.5,929.5C 213.158,936.491 219.158,943.157 225.5,949.5C 246.008,972.244 269.675,990.911 296.5,1005.5C 297.293,1004.64 296.96,1003.81 295.5,1003C 272.917,986.252 253.584,966.418 237.5,943.5C 232.006,936.513 227.006,929.18 222.5,921.5C 218.766,915.755 215.432,909.755 212.5,903.5C 210.134,898.768 207.801,894.101 205.5,889.5C 199.754,875.915 194.42,862.249 189.5,848.5C 187.822,842.406 186.155,836.406 184.5,830.5C 184.102,826.239 183.102,822.239 181.5,818.5C 181.795,816.265 181.461,814.265 180.5,812.5C 179.768,806.25 178.434,800.25 176.5,794.5C 176.187,789.647 175.521,784.98 174.5,780.5C 167.862,725.839 167.862,671.172 174.5,616.5C 176.167,616.5 177.833,616.5 179.5,616.5 Z"/></g>
<g><path style="opacity:1" fill="#7e7e7e" d="M 203.5,617.5 C 222.167,617.5 240.833,617.5 259.5,617.5C 259.672,618.492 259.338,619.158 258.5,619.5C 240.167,618.833 221.833,618.167 203.5,617.5 Z"/></g>
<g><path style="opacity:1" fill="#213e35" d="M 350.5,590.5 C 351.117,590.611 351.617,590.944 352,591.5C 352.186,594.036 352.686,596.369 353.5,598.5C 353.5,600.833 353.5,603.167 353.5,605.5C 353.828,616.014 353.494,626.347 352.5,636.5C 349.229,627.694 345.563,619.028 341.5,610.5C 340.833,610.167 340.167,609.833 339.5,609.5C 338.287,609.747 337.62,610.414 337.5,611.5C 329.698,620.993 325.698,631.993 325.5,644.5C 323.786,650.399 322.453,656.399 321.5,662.5C 319.523,671.702 318.189,681.036 317.5,690.5C 316.233,699.443 315.566,708.443 315.5,717.5C 315.5,719.5 315.5,721.5 315.5,723.5C 314.341,734.326 314.174,745.326 315,756.5C 316.165,766.477 316.998,776.477 317.5,786.5C 317.5,810.833 317.5,835.167 317.5,859.5C 316.331,856.659 315.331,853.659 314.5,850.5C 312.916,845.584 311.582,840.584 310.5,835.5C 309.537,830.95 308.203,826.617 306.5,822.5C 306.632,819.43 306.299,816.43 305.5,813.5C 304.822,808.429 303.822,803.429 302.5,798.5C 301.908,795.873 301.575,793.206 301.5,790.5C 301.156,786.106 300.49,781.772 299.5,777.5C 299.218,771.979 298.551,766.646 297.5,761.5C 297.393,755.865 297.059,750.532 296.5,745.5C 294.515,705.08 300.015,665.747 313,627.5C 320.292,617.708 328.125,608.375 336.5,599.5C 341.727,597.254 346.394,594.254 350.5,590.5 Z"/></g>
<g><path style="opacity:1" fill="#141515" d="M 325.5,644.5 C 367.738,763.331 409.738,882.331 451.5,1001.5C 447.821,1001.28 444.154,1000.94 440.5,1000.5C 401.204,887.608 361.538,774.941 321.5,662.5C 322.453,656.399 323.786,650.399 325.5,644.5 Z"/></g>
<g><path style="opacity:1" fill="#587a72" d="M 636.5,645.5 C 637.167,672.167 637.833,698.833 638.5,725.5C 637.02,731.109 635.02,736.443 632.5,741.5C 631.833,716.167 631.167,690.833 630.5,665.5C 631.167,663.833 631.833,662.167 632.5,660.5C 634.24,655.613 635.573,650.613 636.5,645.5 Z"/></g>
<g><path style="opacity:1" fill="#1a1a1b" d="M 321.5,662.5 C 361.538,774.941 401.204,887.608 440.5,1000.5C 434.94,999.091 429.607,997.091 424.5,994.5C 389.602,892.802 353.936,791.469 317.5,690.5C 318.189,681.036 319.523,671.702 321.5,662.5 Z"/></g>
<g><path style="opacity:0.776" fill="#7e7e7e" d="M 89.5,664.5 C 89.573,666.027 88.9063,667.027 87.5,667.5C 87.427,665.973 88.0937,664.973 89.5,664.5 Z"/></g>
<g><path style="opacity:1" fill="#eaeaea" d="M 94.5,672.5 C 105.544,672.841 108.544,678.008 103.5,688C 92.7377,691.534 88.2377,687.701 90,676.5C 91.3968,674.93 92.8968,673.596 94.5,672.5 Z"/></g>
<g><path style="opacity:1" fill="#6a958b" d="M 630.5,665.5 C 631.167,690.833 631.833,716.167 632.5,741.5C 629.346,751.124 625.68,760.458 621.5,769.5C 621.831,742.661 621.498,715.995 620.5,689.5C 621.5,687.5 622.5,685.5 623.5,683.5C 624.559,680.382 625.892,677.382 627.5,674.5C 628.698,671.574 629.698,668.574 630.5,665.5 Z"/></g>
<g><path style="opacity:1" fill="#78a89c" d="M 618.5,689.5 C 618.638,693.286 619.305,693.286 620.5,689.5C 621.498,715.995 621.831,742.661 621.5,769.5C 620.397,773.497 618.731,777.164 616.5,780.5C 616.5,753.833 616.5,727.167 616.5,700.5C 616.931,696.663 617.598,692.997 618.5,689.5 Z"/></g>
<g><path style="opacity:1" fill="#212122" d="M 317.5,690.5 C 353.936,791.469 389.602,892.802 424.5,994.5C 418.929,991.554 413.929,987.888 409.5,983.5C 378.735,894.532 347.401,805.865 315.5,717.5C 315.566,708.443 316.233,699.443 317.5,690.5 Z"/></g>
<g><path style="opacity:1" fill="#fafbfb" d="M 694.5,722.5 C 689.015,770.725 679.015,818.058 664.5,864.5C 662.129,869.941 660.129,875.608 658.5,881.5C 655.6,886.848 653.267,892.515 651.5,898.5C 649.264,902.645 647.264,906.978 645.5,911.5C 641.183,919.465 636.849,927.465 632.5,935.5C 626.586,944.323 620.92,953.323 615.5,962.5C 610.814,967.858 606.481,973.525 602.5,979.5C 599.5,982.833 596.5,986.167 593.5,989.5C 590.31,975.598 586.31,961.931 581.5,948.5C 581.372,946.345 581.872,944.345 583,942.5C 588.058,934.949 592.891,927.283 597.5,919.5C 602.752,911.332 607.752,902.999 612.5,894.5C 643.98,839.873 670.314,782.873 691.5,723.5C 693.288,715.393 694.288,715.06 694.5,722.5 Z"/></g>
<g><path style="opacity:1" fill="#222d2b" d="M 694.5,722.5 C 696.518,770.357 690.518,817.024 676.5,862.5C 676.565,862.062 676.399,861.728 676,861.5C 672.455,863.022 668.955,864.689 665.5,866.5C 664.702,866.043 664.369,865.376 664.5,864.5C 679.015,818.058 689.015,770.725 694.5,722.5 Z"/></g>
<g><path style="opacity:1" fill="#272728" d="M 315.5,717.5 C 347.401,805.865 378.735,894.532 409.5,983.5C 406.833,981.167 404.167,978.833 401.5,976.5C 396.46,972.461 392.127,967.794 388.5,962.5C 364.637,893.41 340.47,824.41 316,755.5C 315.5,744.839 315.333,734.172 315.5,723.5C 315.5,721.5 315.5,719.5 315.5,717.5 Z"/></g>
<g><path style="opacity:1" fill="#8bc3b5" d="M 616.5,700.5 C 616.5,727.167 616.5,753.833 616.5,780.5C 612.39,792.055 607.723,803.389 602.5,814.5C 601.833,793.5 601.167,772.5 600.5,751.5C 605.467,734.271 610.8,717.271 616.5,700.5 Z"/></g>
<g><path style="opacity:1" fill="#212c2a" d="M 691.5,723.5 C 670.314,782.873 643.98,839.873 612.5,894.5C 607.693,895.769 603.027,897.436 598.5,899.5C 631.06,841.716 662.06,783.05 691.5,723.5 Z"/></g>
<g><path style="opacity:1" fill="#2c2d2e" d="M 315.5,723.5 C 315.333,734.172 315.5,744.839 316,755.5C 340.47,824.41 364.637,893.41 388.5,962.5C 370.686,943.577 356.852,921.911 347,897.5C 332.92,861.505 323.086,824.505 317.5,786.5C 316.998,776.477 316.165,766.477 315,756.5C 314.174,745.326 314.341,734.326 315.5,723.5 Z"/></g>
<g><path style="opacity:1" fill="#2c3c38" d="M 296.5,745.5 C 297.059,750.532 297.393,755.865 297.5,761.5C 278.617,766.312 259.617,771.645 240.5,777.5C 239.658,772.213 239.324,766.88 239.5,761.5C 258.5,756.167 277.5,750.833 296.5,745.5 Z"/></g>
<g><path style="opacity:1" fill="#78ac9f" d="M 600.5,751.5 C 601.167,772.5 601.833,793.5 602.5,814.5C 598.638,823.42 594.971,832.42 591.5,841.5C 590.833,823.833 590.167,806.167 589.5,788.5C 593.02,776.077 596.687,763.744 600.5,751.5 Z"/></g>
<g><path style="opacity:1" fill="#394f4a" d="M 297.5,761.5 C 298.551,766.646 299.218,771.979 299.5,777.5C 280.244,782.814 260.91,787.814 241.5,792.5C 241.084,787.507 240.751,782.507 240.5,777.5C 259.617,771.645 278.617,766.312 297.5,761.5 Z"/></g>
<g><path style="opacity:1" fill="#445f58" d="M 299.5,777.5 C 300.49,781.772 301.156,786.106 301.5,790.5C 300.735,790.077 299.902,789.743 299,789.5C 280.197,794.98 261.697,800.314 243.5,805.5C 242.993,801.14 242.327,796.807 241.5,792.5C 260.91,787.814 280.244,782.814 299.5,777.5 Z"/></g>
<g><path style="opacity:1" fill="#2b4c43" d="M 174.5,780.5 C 175.521,784.98 176.187,789.647 176.5,794.5C 176.67,795.822 176.337,796.989 175.5,798C 162.377,804.061 149.377,810.394 136.5,817C 135.072,817.579 133.738,817.412 132.5,816.5C 130.768,812.303 129.435,807.969 128.5,803.5C 129.15,803.804 129.817,804.137 130.5,804.5C 145.217,797.466 159.551,790.632 173.5,784C 174.337,782.989 174.67,781.822 174.5,780.5 Z"/></g>
<g><path style="opacity:1" fill="#4d6b64" d="M 301.5,790.5 C 301.575,793.206 301.908,795.873 302.5,798.5C 284.063,803.922 265.563,809.255 247,814.5C 245.989,813.944 245.156,813.278 244.5,812.5C 244.552,810.097 244.219,807.764 243.5,805.5C 261.697,800.314 280.197,794.98 299,789.5C 299.902,789.743 300.735,790.077 301.5,790.5 Z"/></g>
<g><path style="opacity:1" fill="#639185" d="M 589.5,788.5 C 590.167,806.167 590.833,823.833 591.5,841.5C 588.484,848.239 585.484,854.906 582.5,861.5C 582.829,846.324 582.496,831.324 581.5,816.5C 584.18,807.148 586.847,797.815 589.5,788.5 Z"/></g>
<g><path style="opacity:1" fill="#567971" d="M 302.5,798.5 C 303.822,803.429 304.822,808.429 305.5,813.5C 304.778,813.082 304.278,812.416 304,811.5C 285.598,817.134 267.098,822.467 248.5,827.5C 246.928,822.673 245.594,817.673 244.5,812.5C 245.156,813.278 245.989,813.944 247,814.5C 265.563,809.255 284.063,803.922 302.5,798.5 Z"/></g>
<g><path style="opacity:1" fill="#3f675b" d="M 176.5,794.5 C 178.434,800.25 179.768,806.25 180.5,812.5C 166.5,819.167 152.5,825.833 138.5,832.5C 135.912,827.404 133.912,822.071 132.5,816.5C 133.738,817.412 135.072,817.579 136.5,817C 149.377,810.394 162.377,804.061 175.5,798C 176.337,796.989 176.67,795.822 176.5,794.5 Z"/></g>
<g><path style="opacity:1" fill="#4b756a" d="M 180.5,812.5 C 181.461,814.265 181.795,816.265 181.5,818.5C 181.53,819.497 181.03,820.164 180,820.5C 167.013,826.744 154.18,833.077 141.5,839.5C 140.264,837.351 139.264,835.018 138.5,832.5C 152.5,825.833 166.5,819.167 180.5,812.5 Z"/></g>
<g><path style="opacity:1" fill="#61877f" d="M 305.5,813.5 C 306.299,816.43 306.632,819.43 306.5,822.5C 287.759,827.637 269.093,832.97 250.5,838.5C 249.325,834.958 248.659,831.291 248.5,827.5C 267.098,822.467 285.598,817.134 304,811.5C 304.278,812.416 304.778,813.082 305.5,813.5 Z"/></g>
<g><path style="opacity:1" fill="#59867a" d="M 181.5,818.5 C 183.102,822.239 184.102,826.239 184.5,830.5C 184.67,831.822 184.337,832.989 183.5,834C 171.494,839.336 159.827,845.17 148.5,851.5C 146.901,851.768 145.568,851.434 144.5,850.5C 145.552,850.649 146.552,850.483 147.5,850C 145.097,846.689 143.097,843.189 141.5,839.5C 154.18,833.077 167.013,826.744 180,820.5C 181.03,820.164 181.53,819.497 181.5,818.5 Z"/></g>
<g><path style="opacity:1" fill="#6b978c" d="M 306.5,822.5 C 308.203,826.617 309.537,830.95 310.5,835.5C 291.759,840.637 273.093,845.97 254.5,851.5C 252.768,847.303 251.435,842.97 250.5,838.5C 269.093,832.97 287.759,827.637 306.5,822.5 Z"/></g>
<g><path style="opacity:1" fill="#4a7368" d="M 581.5,816.5 C 582.496,831.324 582.829,846.324 582.5,861.5C 579.837,869.155 577.17,876.822 574.5,884.5C 573.833,871.833 573.167,859.167 572.5,846.5C 575.248,836.429 578.248,826.429 581.5,816.5 Z"/></g>
<g><path style="opacity:1" fill="#72a598" d="M 184.5,830.5 C 186.155,836.406 187.822,842.406 189.5,848.5C 189.631,849.376 189.298,850.043 188.5,850.5C 178.466,855.95 168.132,860.617 157.5,864.5C 154.734,859.955 151.734,855.622 148.5,851.5C 159.827,845.17 171.494,839.336 183.5,834C 184.337,832.989 184.67,831.822 184.5,830.5 Z"/></g>
<g><path style="opacity:1" fill="#77a89b" d="M 310.5,835.5 C 311.582,840.584 312.916,845.584 314.5,850.5C 296.026,855.035 277.692,860.035 259.5,865.5C 257.235,861.146 255.569,856.479 254.5,851.5C 273.093,845.97 291.759,840.637 310.5,835.5 Z"/></g>
<g><path style="opacity:1" fill="#83b9ab" d="M 314.5,850.5 C 315.331,853.659 316.331,856.659 317.5,859.5C 317.629,861.216 317.962,862.883 318.5,864.5C 317.735,864.077 316.902,863.743 316,863.5C 298.609,868.688 281.109,873.354 263.5,877.5C 261.572,873.715 260.238,869.715 259.5,865.5C 277.692,860.035 296.026,855.035 314.5,850.5 Z"/></g>
<g><path style="opacity:1" fill="#88c0b1" d="M 189.5,848.5 C 194.42,862.249 199.754,875.915 205.5,889.5C 204.85,889.196 204.183,888.863 203.5,888.5C 196.352,891.574 189.352,894.908 182.5,898.5C 173.426,887.752 165.093,876.419 157.5,864.5C 168.132,860.617 178.466,855.95 188.5,850.5C 189.298,850.043 189.631,849.376 189.5,848.5 Z"/></g>
<g><path style="opacity:1" fill="#375a50" d="M 572.5,846.5 C 573.167,859.167 573.833,871.833 574.5,884.5C 571.435,892.695 568.768,901.028 566.5,909.5C 565.833,897.833 565.167,886.167 564.5,874.5C 566.97,865.093 569.637,855.759 572.5,846.5 Z"/></g>
<g><path style="opacity:1" fill="#8dc6b7" d="M 318.5,864.5 C 320.832,871.162 323.165,877.828 325.5,884.5C 325.389,885.117 325.056,885.617 324.5,886C 307.632,890.572 290.966,895.405 274.5,900.5C 270.264,893.135 266.597,885.468 263.5,877.5C 281.109,873.354 298.609,868.688 316,863.5C 316.902,863.743 317.735,864.077 318.5,864.5 Z"/></g>
<g><path style="opacity:1" fill="#384d48" d="M 676.5,862.5 C 675.748,867.411 674.415,872.078 672.5,876.5C 672.44,875.957 672.107,875.624 671.5,875.5C 667.265,877.785 662.931,879.785 658.5,881.5C 660.129,875.608 662.129,869.941 664.5,864.5C 664.369,865.376 664.702,866.043 665.5,866.5C 668.955,864.689 672.455,863.022 676,861.5C 676.399,861.728 676.565,862.062 676.5,862.5 Z"/></g>
<g><path style="opacity:1" fill="#2e4c44" d="M 564.5,874.5 C 565.167,886.167 565.833,897.833 566.5,909.5C 563.352,920.636 562.686,931.969 564.5,943.5C 562.712,939.047 561.212,934.38 560,929.5C 557.153,910.792 558.653,892.459 564.5,874.5 Z"/></g>
<g><path style="opacity:1" fill="#4d6a63" d="M 672.5,876.5 C 670.738,883.127 668.405,889.461 665.5,895.5C 660.677,894.778 656.177,896.111 652,899.5C 651.601,899.272 651.435,898.938 651.5,898.5C 653.267,892.515 655.6,886.848 658.5,881.5C 662.931,879.785 667.265,877.785 671.5,875.5C 672.107,875.624 672.44,875.957 672.5,876.5 Z"/></g>
<g><path style="opacity:1" fill="#7fb5a7" d="M 325.5,884.5 C 327.009,887.678 328.342,891.011 329.5,894.5C 312.543,899.323 295.543,903.989 278.5,908.5C 276.659,906.151 275.326,903.485 274.5,900.5C 290.966,895.405 307.632,890.572 324.5,886C 325.056,885.617 325.389,885.117 325.5,884.5 Z"/></g>
<g><path style="opacity:1" fill="#152924" d="M 401.5,735.5 C 434.122,809.76 464.289,885.093 492,961.5C 494.333,969.833 496.667,978.167 499,986.5C 499.667,990.833 499.667,995.167 499,999.5C 496.472,1002.1 494.972,1005.1 494.5,1008.5C 493.063,1007.27 491.396,1006.27 489.5,1005.5C 470.765,1010.52 451.765,1012.02 432.5,1010C 421.026,1008.1 411.026,1003.26 402.5,995.5C 401.504,989.202 401.17,982.868 401.5,976.5C 404.167,978.833 406.833,981.167 409.5,983.5C 413.929,987.888 418.929,991.554 424.5,994.5C 429.607,997.091 434.94,999.091 440.5,1000.5C 444.154,1000.94 447.821,1001.28 451.5,1001.5C 459.364,1002.84 467.031,1002.51 474.5,1000.5C 480.258,999.977 485.925,998.977 491.5,997.5C 489.68,984.199 486.513,971.199 482,958.5C 455.324,890.306 428.157,822.306 400.5,754.5C 401.49,748.355 401.823,742.022 401.5,735.5 Z"/></g>
<g><path style="opacity:1" fill="#73a699" d="M 329.5,894.5 C 331.774,898.714 333.774,903.047 335.5,907.5C 335.649,908.552 335.483,909.552 335,910.5C 333.853,909.542 332.853,909.875 332,911.5C 330.333,911.5 328.667,911.5 327,911.5C 325.09,912.206 323.09,913.206 321,914.5C 319.853,913.542 318.853,913.875 318,915.5C 317,915.167 316,914.833 315,914.5C 313.863,915.364 312.53,916.364 311,917.5C 310,917.167 309,916.833 308,916.5C 307.667,917.167 307.333,917.833 307,918.5C 305.333,918.5 303.667,918.5 302,918.5C 301.147,920.125 300.147,920.458 299,919.5C 295.491,920.792 291.658,922.125 287.5,923.5C 283.749,919.005 280.749,914.005 278.5,908.5C 295.543,903.989 312.543,899.323 329.5,894.5 Z"/></g>
<g><path style="opacity:1" fill="#6b958b" d="M 205.5,889.5 C 207.801,894.101 210.134,898.768 212.5,903.5C 206.046,906.227 199.712,909.227 193.5,912.5C 189.078,908.413 185.411,903.746 182.5,898.5C 189.352,894.908 196.352,891.574 203.5,888.5C 204.183,888.863 204.85,889.196 205.5,889.5 Z"/></g>
<g><path style="opacity:1" fill="#5f847b" d="M 665.5,895.5 C 664.935,899.537 663.601,903.203 661.5,906.5C 661.631,905.624 661.298,904.957 660.5,904.5C 655.599,907.118 650.599,909.452 645.5,911.5C 647.264,906.978 649.264,902.645 651.5,898.5C 651.435,898.938 651.601,899.272 652,899.5C 656.177,896.111 660.677,894.778 665.5,895.5 Z"/></g>
<g><path style="opacity:1" fill="#3f5651" d="M 612.5,894.5 C 607.752,902.999 602.752,911.332 597.5,919.5C 592.833,921.5 588.167,923.5 583.5,925.5C 588.5,916.833 593.5,908.167 598.5,899.5C 603.027,897.436 607.693,895.769 612.5,894.5 Z"/></g>
<g><path style="opacity:1" fill="#0f0f0f" d="M 184.5,915.5 C 192.696,915.529 195.863,919.529 194,927.5C 188.837,933.062 184.171,932.729 180,926.5C 178.776,921.626 180.276,917.959 184.5,915.5 Z"/></g>
<g><path style="opacity:1" fill="#56776f" d="M 212.5,903.5 C 215.432,909.755 218.766,915.755 222.5,921.5C 216.666,922.912 211.666,925.579 207.5,929.5C 202.085,924.421 197.418,918.754 193.5,912.5C 199.712,909.227 206.046,906.227 212.5,903.5 Z"/></g>
<g><path style="opacity:1" fill="#5e8c80" d="M 335.5,907.5 C 339.085,913.668 342.418,920.001 345.5,926.5C 331.42,931.108 317.087,935.275 302.5,939C 300.881,939.236 299.881,940.069 299.5,941.5C 295.007,935.852 291.007,929.852 287.5,923.5C 291.658,922.125 295.491,920.792 299,919.5C 300.147,920.458 301.147,920.125 302,918.5C 303.667,918.5 305.333,918.5 307,918.5C 307.333,917.833 307.667,917.167 308,916.5C 309,916.833 310,917.167 311,917.5C 312.53,916.364 313.863,915.364 315,914.5C 316,914.833 317,915.167 318,915.5C 318.853,913.875 319.853,913.542 321,914.5C 323.09,913.206 325.09,912.206 327,911.5C 328.667,911.5 330.333,911.5 332,911.5C 332.853,909.875 333.853,909.542 335,910.5C 335.483,909.552 335.649,908.552 335.5,907.5 Z"/></g>
<g><path style="opacity:1" fill="#587971" d="M 597.5,919.5 C 592.891,927.283 588.058,934.949 583,942.5C 581.872,944.345 581.372,946.345 581.5,948.5C 580.162,944.815 578.496,941.148 576.5,937.5C 578.861,933.483 581.194,929.483 583.5,925.5C 588.167,923.5 592.833,921.5 597.5,919.5 Z"/></g>
<g><path style="opacity:1" fill="#79aa9e" d="M 661.5,906.5 C 658.591,914.916 654.924,922.916 650.5,930.5C 644.664,930.865 638.998,932.865 633.5,936.5C 632.893,936.376 632.56,936.043 632.5,935.5C 636.849,927.465 641.183,919.465 645.5,911.5C 650.599,909.452 655.599,907.118 660.5,904.5C 661.298,904.957 661.631,905.624 661.5,906.5 Z"/></g>
<g><path style="opacity:1" fill="#3f5651" d="M 222.5,921.5 C 227.006,929.18 232.006,936.513 237.5,943.5C 233.182,944.992 229.182,946.992 225.5,949.5C 219.158,943.157 213.158,936.491 207.5,929.5C 211.666,925.579 216.666,922.912 222.5,921.5 Z"/></g>
<g><path style="opacity:1" fill="#4a7569" d="M 345.5,926.5 C 350.412,933.32 355.078,940.32 359.5,947.5C 344.171,951.078 329.171,955.412 314.5,960.5C 309.15,954.478 304.15,948.145 299.5,941.5C 299.881,940.069 300.881,939.236 302.5,939C 317.087,935.275 331.42,931.108 345.5,926.5 Z"/></g>
<g><path style="opacity:1" fill="#8ac2b4" d="M 650.5,930.5 C 647.971,937.037 644.971,943.37 641.5,949.5C 633.139,954.347 624.472,958.681 615.5,962.5C 620.92,953.323 626.586,944.323 632.5,935.5C 632.56,936.043 632.893,936.376 633.5,936.5C 638.998,932.865 644.664,930.865 650.5,930.5 Z"/></g>
<g><path style="opacity:1" fill="#26312f" d="M 237.5,943.5 C 253.584,966.418 272.917,986.252 295.5,1003C 296.96,1003.81 297.293,1004.64 296.5,1005.5C 269.675,990.911 246.008,972.244 225.5,949.5C 229.182,946.992 233.182,944.992 237.5,943.5 Z"/></g>
<g><path style="opacity:1" fill="#305349" d="M 359.5,947.5 C 365.492,954.167 371.159,961.167 376.5,968.5C 363.702,972.953 350.702,976.953 337.5,980.5C 336.287,980.747 335.62,981.414 335.5,982.5C 327.798,975.799 320.798,968.466 314.5,960.5C 329.171,955.412 344.171,951.078 359.5,947.5 Z"/></g>
<g><path style="opacity:1" fill="#72a598" d="M 641.5,949.5 C 638.321,955.87 634.654,961.87 630.5,967.5C 621.177,971.494 611.844,975.494 602.5,979.5C 606.481,973.525 610.814,967.858 615.5,962.5C 624.472,958.681 633.139,954.347 641.5,949.5 Z"/></g>
<g><path style="opacity:1" fill="#1d3a32" d="M 317.5,786.5 C 323.086,824.505 332.92,861.505 347,897.5C 356.852,921.911 370.686,943.577 388.5,962.5C 392.127,967.794 396.46,972.461 401.5,976.5C 401.17,982.868 401.504,989.202 402.5,995.5C 411.026,1003.26 421.026,1008.1 432.5,1010C 451.765,1012.02 470.765,1010.52 489.5,1005.5C 491.396,1006.27 493.063,1007.27 494.5,1008.5C 492.147,1015.54 488.981,1022.21 485,1028.5C 478.583,1036.42 472.749,1044.75 467.5,1053.5C 464.939,1054.13 462.605,1055.13 460.5,1056.5C 413.365,1040.78 371.698,1016.11 335.5,982.5C 335.62,981.414 336.287,980.747 337.5,980.5C 350.702,976.953 363.702,972.953 376.5,968.5C 371.159,961.167 365.492,954.167 359.5,947.5C 355.078,940.32 350.412,933.32 345.5,926.5C 342.418,920.001 339.085,913.668 335.5,907.5C 333.774,903.047 331.774,898.714 329.5,894.5C 328.342,891.011 327.009,887.678 325.5,884.5C 323.165,877.828 320.832,871.162 318.5,864.5C 317.962,862.883 317.629,861.216 317.5,859.5C 317.5,835.167 317.5,810.833 317.5,786.5 Z"/></g>
<g><path style="opacity:1" fill="#0c0c0c" d="M 657.5,974.5 C 665.161,973.663 668.661,976.996 668,984.5C 665.459,989.069 661.625,990.569 656.5,989C 651.003,983.683 651.336,978.85 657.5,974.5 Z"/></g>
<g><path style="opacity:1" fill="#5f8d81" d="M 630.5,967.5 C 628.351,972.465 625.684,977.132 622.5,981.5C 612.945,984.943 603.612,988.943 594.5,993.5C 594.167,992.167 593.833,990.833 593.5,989.5C 596.5,986.167 599.5,982.833 602.5,979.5C 611.844,975.494 621.177,971.494 630.5,967.5 Z"/></g>
<g><path style="opacity:1" fill="#456e63" d="M 622.5,981.5 C 614.912,993.666 606.579,1005.33 597.5,1016.5C 596.417,1008.84 595.417,1001.17 594.5,993.5C 603.612,988.943 612.945,984.943 622.5,981.5 Z"/></g>
<g><path style="opacity:1" fill="#0c0c0c" d="M 366.5,1064.5 C 377.035,1064.23 380.035,1068.9 375.5,1078.5C 371.16,1081.44 367.16,1081.11 363.5,1077.5C 361.51,1072.29 362.51,1067.96 366.5,1064.5 Z"/></g>
<g><path style="opacity:1" fill="#8b8b8b" d="M 489.5,1114.5 C 491.607,1113.53 493.941,1113.2 496.5,1113.5C 495.833,1114.17 495.167,1114.83 494.5,1115.5C 492.784,1115.37 491.117,1115.04 489.5,1114.5 Z"/></g>
</svg>
